<svg xmlns="http://www.w3.org/2000/svg" xml:space="preserve" viewBox="0 0 908 616"><path fill="#110d1b" d="M626 617H1V1h908v616zm113.442-424.906c-.218.275-.435.549-1.153.96-.47.496-.941.99-1.95 1.725-.387.427-.775.854-1.277 1.254 0 0-.013.116-.649.305l-39.459 32.454.358.717 33.858-6.605c-6.32 7.22-11.807 13.489-17.91 20.067-9.79 9.519-19.582 19.037-29.924 28.802-.411.423-.823.846-1.305 1.247 0 0-.008.073-.504.154-.17.273-.342.547-.532.821 0 0-.001.02-.49.156-.18.276-.36.551-.506.851 0 0-.02-.035-.544.083-.193.288-.386.575-.502.87 0 0-.005-.077-.542.067-.193.3-.387.602-.476.913 0 0-.01-.106-.553.046-.21.297-.42.595-.528.89 0 0-.042-.094-.602.071-.238.3-.475.6-1.093.985 0 0-.194.337-.614.392-.264.164-.398.4-.965.882-.547.537-1.094 1.074-2.191 1.766-.224.291-.449.582-.557.858 0 0-.06-.1-.7.11-4.728 3.966-9.455 7.933-14.835 12.121-5.123 3.911-10.246 7.823-15.905 11.926-.236.28-.473.561-.753.838 0 0-.035-.027-.691.114-10.65 7.344-21.298 14.688-32.667 21.991-7.17 4.315-14.34 8.63-22.206 13.017-5.064 2.9-10.128 5.8-15.876 8.944-6.41 3.365-12.821 6.73-19.947 10.186-6.417 3.042-12.835 6.083-19.957 9.206-7.112 3.206-14.223 6.412-22.097 9.649-7.45 2.89-14.9 5.78-23.118 8.798-11.683 3.835-23.366 7.669-35.816 11.523-11.089 2.955-22.178 5.909-34.001 8.797-1.424.362-2.848.723-4.77.998-.154.07-.308.139-1.252.186-17.75 2.687-35.499 5.374-54.111 7.946-16.376-.071-32.751-.143-49.618-.544-.572-.03-1.144-.058-2.225-.478-.42-.003-.84-.007-2.027-.247-10.014-1.799-19.748-4.235-27.365-12.663-3.282-5.53-1.278-10.28 2.407-14.571 8.972-10.45 20.855-16.856 32.759-23.19 4.912-2.615 9.896-5.094 14.847-7.635-1.54-.654-2.81-.562-3.96-.14-12.61 4.645-25.355 8.97-37.753 14.125-12.585 5.235-24.938 11.2-34.741 21.05-10.34 10.389-9.008 21.189 3.998 27.81 7.734 3.937 16.333 6.172 25.284 9.47 19.214 4.127 38.66 5.363 59.178 4.827 8.403-.523 16.805-1.047 26.112-1.399 2.147-.204 4.312-.301 6.44-.63 16.522-2.55 33.037-5.144 50.399-7.654 11.399-2.72 22.799-5.442 35.008-8.133 11.712-3.451 23.424-6.903 35.655-10.283.266-.199.531-.398.661-.602 0 0 .106.085.863-.012 6.982-2.471 13.965-4.942 21.695-7.402 8.222-3.227 16.444-6.454 25.39-9.743 6.619-2.815 13.239-5.629 20.55-8.527 7.861-3.63 15.721-7.26 24.304-11.111 6.336-3.218 12.673-6.436 19.703-9.775.804-.536 1.574-1.135 2.418-1.597 7.993-4.373 15.998-8.723 24.694-13.175 10.126-6.287 20.252-12.574 31.045-19.004 5.756-3.9 11.512-7.8 17.935-11.893 6.236-4.635 12.472-9.27 19.333-14.085 7.435-5.98 14.87-11.961 22.98-18.201 8.638-7.562 17.608-14.782 25.837-22.767 12.04-11.685 23.55-23.918 35.89-36.176l18.965-20.587 7.109 25.819c10.107-18.5 19.547-35.78 29.253-53.282 0 0-.028-.345.452-.681.108-.368.215-.737.39-1.113 0 0-.032-.06.457-.373.186-.533.373-1.065 1.088-2.03l31.227-56.106-115.222 23.173 24.533 19.655c-10.283 9.39-20.214 18.46-30.673 27.71-.206.296-.413.593-.494.907 0 0-.008-.126-.59.03-.234.314-.467.629-1.126 1.046 0 0-.242.364-.631.397-.25.147-.372.365-.523.639 0 0-.007.162-.458.25-.293.158-.462.403-.573.719 0 0-.008.068-.51.145-.176.277-.35.555-.5.862 0 0-.03-.026-.558.094m-257.245 41.943c-.73.66-1.462 1.32-2.85 2.142l-16.533 14.93.801.943c11.195-4.767 22.389-9.534 34.367-14.346 3.443-1.082 6.92-2.072 10.298-3.33.625-.234.846-1.552 1.574-2.293l.33.01s.323-.059-.013.813c3.772-.958 7.543-1.916 11.667-2.816.24.017.476-.01.778.702l15.614-1.92c-1.909 3.203-2.819 5.383-4.285 7.085-12.255 14.232-23.954 29.021-37.083 42.405-23.32 23.775-48.576 45.353-77.695 61.981-.767.438-1.08 1.671-1.56 2.575 0 0-.11.015-.161-.833-4.226 1.586-8.45 3.173-13.094 4.769 0 0-.343.238-1.06.182l-4.221 1.196c.606.924 1.18 1.8 1.14 2.956-31.514 20.144-65.447 35.006-101.236 45.96 1.293.644 2.45.985 3.516.8 18.154-3.16 36.594-5.227 54.387-9.803 60.787-15.633 118.903-38.256 172.955-70.442 34.468-20.525 66.343-44.537 92.813-75.014 13.698-15.771 25.61-32.687 31.733-53.13 7.837-26.169-3.035-44.47-29.82-49.502-20.869-3.92-41.133-.47-61.048 5.476-40.641 12.134-77.018 32.64-110.627 58.12-10.987 8.33-20.896 18.082-31.299 27.183l1.059 1.462c1.338-.468 2.75-.792 4.003-1.43 6.218-3.167 12.338-6.532 18.596-9.62 28.108-13.865 56.93-25.794 88.123-30.719 6.17-.974 12.59-.64 18.874-.401 1.503.057 2.927 2.158 4.387 3.319-1.277 1.177-2.388 2.671-3.873 3.455-2.033 1.072-4.368 1.557-6.542 2.376-21.186 7.98-41.552 17.507-60.106 31.72-1.11.963-2.22 1.927-3.91 3.04M822.423 459.27c-3.427 3.738-6.854 7.476-10.829 11.53-5.19 4.754-10.38 9.508-16.212 14.46-3.49 2.84-6.98 5.682-11.134 8.721-7.082 5.012-14.164 10.024-21.937 15.133-15.436 8.632-30.871 17.264-47.024 25.984-15.427 6.639-30.855 13.278-47.038 19.946-76.656 27.848-155.923 41.439-237.395 43.504 2.29.274 4.504.802 6.708.763 28.453-.508 56.966-.12 85.34-1.912 35.059-2.215 69.663-8.423 103.833-16.644 14.524-3.494 28.85-7.812 44.042-11.72 3.787-1.222 7.574-2.442 12.074-3.762 1.753-.593 3.505-1.186 6.03-1.972 17.52-6.69 35.04-13.379 53.257-20.211 15.993-7.919 31.987-15.838 48.67-23.969 6.43-3.959 12.859-7.919 19.965-12.056 6.405-4.69 12.81-9.38 19.86-14.274 5.437-4.932 10.875-9.864 16.681-15.345 1.677-1.469 3.354-2.938 5.685-4.743 2.775-3.257 5.551-6.513 8.928-10.182 3.379-5.454 6.757-10.91 10.713-16.778 1.14-2.907 2.282-5.814 3.924-9.163.277-1.778.225-3.69.883-5.312 4.225-10.417 3.333-20.79-.284-31.05-5.588-15.849-17.337-26.546-30.761-35.639-20.135-13.638-42.824-21.07-66.235-26.566-4.766-1.118-9.71-1.477-14.572-2.186 3.175 2.153 6.596 3.098 9.923 4.304 20.902 7.575 41.17 16.315 57.051 32.634 9.143 9.393 15.283 20.417 14.614 33.826-.36 7.187-2.658 14.277-4.582 21.921-1.112 2.424-2.224 4.848-3.75 7.749-1.626 2.89-3.252 5.78-5.436 9.045-3.457 4.57-6.913 9.139-10.992 13.964M159.915 357.913c-13.364 8.34-26.729 16.679-40.715 25.165-1.424 1.244-2.85 2.488-4.919 3.931-1.82 1.64-3.642 3.28-6.086 5.14-15.798 13.729-29.014 29.295-35.681 49.61-7.38 22.487-.969 48.69 15.9 63.34-.321-2.045-.32-3.813-.885-5.377-8.881-24.574-4.072-47.45 9.93-68.376 7.43-11.105 17.029-20.758 26.242-31.3.537-.642 1.074-1.285 2.223-2.154 2.688-2.41 5.375-4.821 8.669-7.45 14.462-9.92 28.925-19.839 44.05-29.896 27.326-15.429 56.258-27.166 85.984-37.216-1.933-.334-3.783-.44-5.5-.013-12.394 3.09-25.018 5.536-37.076 9.636-16.592 5.642-32.749 12.563-49.812 19.024-2.744 1.38-5.489 2.76-8.89 4.155-.915.574-1.83 1.148-3.434 1.781m317.872 119.812c13.741-2.894 27.482-5.789 42.026-8.61 3.762-1.01 7.532-1.995 11.287-3.035 8.163-2.261 16.318-4.55 25.218-6.85 14.64-5.372 29.282-10.744 44.633-16.186 10.055-5.345 20.484-10.109 30.032-16.242 6.167-3.961 11.499-9.533 16.367-15.114 4.389-5.032 5.991-11.762 2.13-17.647-7.608-11.592-19.376-16.427-32.795-17.996l.262.04s-.29-.093.18.466c4.748 5.921 5.256 10.43.536 16.067-3.781 4.518-8.516 8.237-13.497 12.463-2.95 1.842-5.763 3.973-8.878 5.474-11.039 5.315-22.182 10.416-34.02 15.611-11.746 4.014-23.493 8.027-35.998 12.069-10.758 2.932-21.516 5.865-32.785 8.726-.153.079-.305.157-1.192.17-1.43.349-2.86.698-5.079 1.006-14.782 2.81-29.565 5.622-45.226 8.426-18.196 2.029-36.349 5.07-54.598 5.844-26.09 1.106-52.277 1.306-78.375.44-16.718-.555-33.35-3.727-50.582-6.037a34 34 0 0 1-2.917-.776c-.167.036-.334.07-1.222-.165-4.17-1.123-8.388-2.094-12.502-3.395-13.05-4.128-25.914-8.718-35.657-19-8.108-8.557-9.617-18.418-3.013-28.182 4.4-6.507 10.022-12.496 16.11-17.478 8.063-6.597 17.114-11.985 26.375-17.952.842-.603 1.683-1.206 3.222-1.91 5.055-2.687 10.109-5.373 15.878-8.125l58.956-25.527c-5.71.702-11.366 1.757-16.827 3.446-15.786 4.883-31.493 10.02-47.963 15.066-6.626 2.736-13.252 5.473-20.505 8.16-.507.323-1.013.645-2.24 1.033-18.971 8.181-37.43 17.373-53.316 30.762-5.897 4.97-11.463 10.801-15.649 17.236-8.962 13.775-6.463 27.899 5.76 38.941 8.5 7.681 18.431 13.035 29.002 17.17 20.971 8.204 42.742 13.272 65.764 16.369 17.023 1.665 34.012 3.973 51.075 4.872 44.588 2.35 89.05.466 134.199-5.72 8.348-1.33 16.695-2.662 25.824-3.91m92.36 23.105c-4.056 1.032-8.112 2.065-13 3.044-20.048 3.747-40.096 7.495-60.993 11.14-9.718 1.327-19.437 2.655-30.058 3.85-20.7 1.371-41.4 2.742-63.018 3.913-10.029.092-20.057.184-30.993.08-4.035.021-8.07.042-12.837-.212-2.082-.059-4.165-.117-7.148-.424-22.813-2.016-45.67-3.634-68.422-6.193-13.978-1.571-27.793-4.58-42.234-7.276a33 33 0 0 1-2.929-.812c-.172.03-.345.061-1.208-.259-4.444-1.13-8.888-2.262-13.789-3.624-.169.026-.337.053-1.169-.27-14.582-5.542-29.398-10.547-43.677-16.782-13.353-5.832-25.297-14.106-34.47-25.767-7.334-9.326-10.203-19.653-6.653-31.336.345-1.134.319-2.381.517-4.004-9.913 6.75-17.634 20.504-17.934 31.451-.367 13.339 5.923 23.778 15.183 32.435 27.854 26.038 62.914 36.876 99.166 46.291.174-.022.347-.044.72.175 0 0 .289-.117.888.425 24.548 4.36 48.991 9.484 73.676 12.832 18.921 2.565 38.147 2.887 58.16 4.386 15.692.015 31.383.03 47.995.233 13.706-.671 27.412-1.343 41.912-1.84 14.294-1.503 28.588-3.007 43.838-4.43 4.595-.635 9.218-1.117 13.78-1.935 12.53-2.247 25.036-4.636 38.366-6.871 7.442-1.987 14.863-4.056 22.332-5.936 6.948-1.75 13.947-3.297 21.717-4.964 8.117-2.424 16.302-4.642 24.34-7.306 37.546-12.45 73.742-27.788 106.043-51.089 14.11-10.178 27.23-21.46 35.878-36.992 10.605-19.044 7.502-35.76-9.35-49.693-10.789-8.92-23.236-14.881-36.474-19.04-10.079-3.167-20.407-5.539-30.624-8.264l-.54 1.819c5.25 2.16 10.552 4.204 15.74 6.507 10.397 4.616 20.28 10.109 28.044 18.643 8.795 9.67 10.528 20.33 4.063 31.683-3.728 6.545-8.615 12.69-14 17.978-13.054 12.818-28.712 22.073-44.9 30.362-26.27 13.45-54.04 23.066-82.98 31.819-6.7 1.878-13.4 3.757-20.67 5.55-.494.25-.988.502-2.288.703m92.47-452.824c-2.631.352-5.282.594-7.89 1.073-24.57 4.515-40.084 31.2-31.377 53.913 7.526 19.631 29.824 29.55 51.2 22.776 22.169-7.026 35.34-31.895 27.228-52.369-6.77-17.086-20.498-24.46-39.161-25.393"/><path fill="#fbfbfb" d="M404.009 347.092s.343-.238.786-.048c.717 1.047.99 1.904 1.388 3.146 1.667-.733 3.228-1.42 5.201-2.124 6.15-1.434 11.887-2.849 18.003-4.256 4.844-1.279 9.355-2.43 13.77-3.873 29.536-9.656 56.617-24.534 83.425-39.857 20.16-11.523 38.47-25.643 54.243-42.788 9.145-9.94 17.47-20.508 21.513-33.766 3.807-12.484-.542-20.046-13.238-22.737-14.142-2.998-27.81-.166-41.27 3.817-21.4 6.333-41.522 15.474-59.879 28.05-.431-.797-.822-1.275-1.213-1.753 17.922-14.118 38.288-23.645 59.474-31.625 2.174-.819 4.51-1.304 6.542-2.376 1.485-.784 2.596-2.278 3.873-3.455-1.46-1.161-2.884-3.262-4.387-3.32-6.285-.239-12.705-.572-18.874.402-31.192 4.925-60.015 16.854-88.123 30.72-6.258 3.087-12.378 6.452-18.596 9.62-1.253.637-2.665.96-4.003 1.43l-1.059-1.463c10.403-9.101 20.312-18.852 31.3-27.183 33.608-25.48 69.985-45.986 110.626-58.12 19.915-5.946 40.18-9.397 61.049-5.476 26.784 5.031 37.656 23.333 29.82 49.501-6.123 20.444-18.036 37.36-31.734 53.131-26.47 30.477-58.345 54.49-92.813 75.014-54.052 32.186-112.168 54.81-172.955 70.442-17.793 4.576-36.233 6.643-54.387 9.802-1.066.186-2.223-.155-3.516-.798 35.79-10.955 69.722-25.817 101.878-46.152 1.48-1.428 2.318-2.667 3.156-3.905"/><path fill="#fbfbfc" d="M593.914 494.485c28.13-8.66 55.901-18.276 82.17-31.727 16.19-8.29 31.847-17.544 44.901-30.362 5.385-5.287 10.272-11.433 14-17.978 6.465-11.353 4.732-22.014-4.063-31.683-7.763-8.534-17.647-14.027-28.044-18.643-5.188-2.303-10.49-4.346-15.74-6.507l.54-1.82c10.217 2.726 20.545 5.098 30.624 8.265 13.238 4.159 25.685 10.12 36.474 19.04 16.852 13.932 19.955 30.649 9.35 49.693-8.649 15.531-21.769 26.814-35.878 36.992-32.3 23.301-68.497 38.64-106.044 51.089-8.037 2.664-16.222 4.882-24.893 6.953-.602-6.066-6.83-11.746-.652-17.525.254-.238.174-.956.084-1.42-.923-4.792-1.88-9.579-2.829-14.367"/><path fill="#14101e" d="M487.992 232.975c18.316-12.895 38.439-22.036 59.839-28.369 13.458-3.983 27.127-6.815 41.269-3.817 12.696 2.691 17.045 10.253 13.238 22.737-4.043 13.258-12.368 23.826-21.513 33.766-15.773 17.145-34.082 31.265-54.243 42.788-26.808 15.323-53.889 30.201-83.425 39.857-4.415 1.444-8.926 2.594-13.77 3.52-.74-1.404-1.105-2.446-1.317-3.823 5.732-2.806 11.311-5.277 17.071-7.518.715-.284 1.25-.796 1.987-1.58 32.775-18.215 61.324-41.123 84.625-70.156 6.169-7.687 10.994-16.572 15.604-25.345 2.699-5.138.486-8.853-4.663-8.843-6.442.013-12.885 1.035-19.312 1.76-.352.04-.562 1.342-.838 2.056-.23.072-.466.1-.707-.375-3.777.496-7.553 1.448-11.33 2.401l-.324.058s-.33-.009-.815-.335c-4.478.956-8.47 2.238-12.862 3.564-6.527 2.427-12.653 4.81-18.78 7.194l-.352-1.097c.941-.88 1.882-1.759 3.162-2.795 2.096-1.551 3.855-2.946 5.852-4.372.694-.445 1.149-.86 1.604-1.276"/><path fill="#fcfcfc" d="M663.073 48c18.207.938 31.934 8.313 38.705 25.4 8.112 20.473-5.06 45.342-27.228 52.368-21.376 6.774-43.674-3.145-51.2-22.776-8.707-22.714 6.807-49.398 31.377-53.913 2.608-.48 5.259-.72 8.346-1.078"/><path fill="#eecef5" d="M266.003 482.086c-22.336-2.7-44.107-7.768-65.078-15.972-10.571-4.135-20.502-9.489-29.003-17.17-12.222-11.042-14.72-25.166-5.759-38.941 4.186-6.435 9.752-12.266 15.65-17.236 15.886-13.389 34.344-22.58 53.986-30.79 1.18-.338 1.688-.647 2.197-.956 6.625-2.736 13.251-5.473 20.545-8.018 1.93 2.424 3.19 4.657 4.45 6.89-5.053 2.686-10.107 5.372-15.866 8.094-1.52.668-2.336 1.3-3.152 1.934-8.627 5.908-17.678 11.296-25.74 17.893-6.089 4.982-11.71 10.971-16.11 17.478-6.605 9.764-5.096 19.625 3.012 28.181 9.743 10.283 22.606 14.873 35.657 19 4.114 1.302 8.332 2.273 12.947 3.67.444.274.874.392.874.392l.369-.286c.817.187 1.634.374 2.74 1.074 1.452 2.234 2.328 4.28 3.834 5.616 4.197 3.725 5.43 7.897 3.658 13.317-.548 1.679.482 3.873.79 5.83"/><path fill="#fcca2b" d="M736.877 194.54c.47-.495.941-.99 1.912-1.635.728-.41.955-.67 1.182-.931 0 0 .029.026.232-.084.477-.288.675-.528.799-.83 0 0 .008-.067.235-.154.47-.25.66-.46.797-.72 0 0 .007-.162.24-.235.431-.207.58-.382.68-.599 0 0 .24-.364.739-.503.735-.446.972-.754 1.21-1.063 0 0 .008.126.206.022.406-.398.615-.692.824-.985l30.145-27.528-24.533-19.655 115.222-23.173c-10.844 19.483-21.036 37.794-31.726 56.487-.691.908-.884 1.435-1.078 1.961 0 0 .033.06-.216.253a4.7 4.7 0 0 0-.622 1.257s.028.345-.464.45c-3.03-2.486-5.964-4.8-8.001-7.737-2.253-3.248-5.097-3.964-8.147-2.595-2.864 1.286-4.659 3.608-2.408 7.25 1.915 3.099.694 4.857-3.01 5.273-2.04.23-3.994 1.214-5.988 1.855-1.85.596-3.666 1.356-5.559 1.743-2.794.571-5.645.857-8.466 1.303-1.439.227-3.116 1.157-4.247.695-3.347-1.366-4.573.265-6.237 2.82-4.769 7.323-10.013 7.594-15.872 1.42-.89-.938-2.586-1.111-3.909-1.638-.326 1.251-.964 2.512-.925 3.752.168 5.32-2.926 8.128-8.37 7.457-.584-.072-1.399.086-1.803.462-4.04 3.765-8.517.138-12.752.664-.49.061-1.272-2.243-1.918-3.45 0 0 .013-.116.373-.174.725-.517 1.09-.976 1.455-1.435"/><path fill="#e4c7f1" d="M266.346 482.284c-.65-2.155-1.68-4.35-1.132-6.028 1.771-5.42.54-9.592-3.658-13.317-1.506-1.337-2.382-3.382-3.554-5.46 16.663 1.64 33.295 4.813 50.013 5.368 26.098.866 52.284.666 78.375-.44 18.25-.774 36.402-3.815 55.111-5.466 2.039 3.308 3.861 6.128 4.999 9.201 1.012 2.734 1.105 5.794 1.902 8.626.661 2.346 1.756 4.57 2.659 6.848-44.247 6.205-88.709 8.09-133.297 5.74-17.063-.9-34.052-3.208-51.418-5.072"/><path fill="#fbc330" d="M734.731 196.244c.964 1.112 1.747 3.416 2.236 3.355 4.235-.526 8.712 3.1 12.752-.664.404-.376 1.219-.534 1.802-.462 5.445.671 8.54-2.136 8.37-7.457-.038-1.24.6-2.5.926-3.752 1.323.527 3.019.7 3.909 1.638 5.86 6.174 11.103 5.903 15.872-1.42 1.664-2.555 2.89-4.186 6.237-2.82 1.131.462 2.808-.468 4.247-.695 2.82-.446 5.672-.732 8.466-1.303 1.893-.387 3.71-1.147 5.56-1.743 1.993-.641 3.948-1.626 5.987-1.855 3.704-.416 4.925-2.174 3.01-5.273-2.25-3.642-.456-5.964 2.408-7.25 3.05-1.369 5.894-.653 8.147 2.595 2.037 2.937 4.971 5.251 7.869 7.847-9.082 17.287-18.522 34.567-28.629 53.067l-7.109-25.82c-6.634 7.202-12.8 13.895-19.718 20.696-7.726-.28-13.743 2.15-19.263 6.224-1.448 1.069-3.28 2.671-4.744 2.489-7.345-.916-13.462 3.014-20.125 4.65-6.074 1.49-11.934 3.834-17.954 5.578-.85.247-2.066-.773-3.112-1.207l17.295-19.758-33.858 6.605-.358-.717c13.153-10.818 26.306-21.636 39.777-32.548"/><path fill="#eac2f4" d="M238.99 508.165c.818.196 1.636.392 2.722 1.123-3.87 6.486-4.594 12.79-1.807 19.516.293.71.024 1.636.102 2.454.32 3.331-1.155 4.97-4.517 4.875 0 0-.29.117-.467-.158-.456-.228-.734-.18-1.012-.133-35.782-9.182-70.842-20.02-98.696-46.058-9.26-8.657-15.55-19.096-15.183-32.435.3-10.947 8.021-24.7 17.934-31.45-.198 1.622-.172 2.869-.517 4.003-3.55 11.683-.681 22.01 6.654 31.336 9.172 11.66 21.116 19.935 34.47 25.767 14.278 6.235 29.094 11.24 44.09 17.094.412.311.83.447.83.447l.382-.257c4.444 1.13 8.888 2.261 13.76 3.717.704.27.98.214 1.255.159"/><path fill="#e5c8f1" d="M235.79 536.404c3.062-.176 4.536-1.815 4.217-5.146-.078-.818.191-1.745-.102-2.454-2.787-6.727-2.063-13.03 2.083-19.35 13.897 1.994 27.712 5.003 41.69 6.574 22.751 2.559 45.609 4.177 68.892 6.655 2.943 4.553 6.3 8.218 6.164 13.516-.023.924.996 2.297 1.894 2.753 6.28 3.19 6.908 8.699 6.375 14.761-19.09-1.32-38.317-1.64-57.238-4.206-24.685-3.348-49.128-8.472-73.975-13.103"/><path fill="#f9f9fa" d="M843.101 428.001c1.423-7.133 3.722-14.223 4.08-21.41.67-13.409-5.47-24.433-14.613-33.826-15.882-16.32-36.15-25.059-57.05-32.634-3.328-1.206-6.749-2.151-9.924-4.304 4.862.709 9.806 1.068 14.572 2.186 23.41 5.497 46.1 12.928 66.235 26.566 13.424 9.093 25.173 19.79 30.76 35.64 3.618 10.26 4.51 20.632.285 31.049-.658 1.623-.606 3.534-1.54 5.527-2.242-.129-3.873-.333-5.403-.842-4.663-1.55-9.231-3.405-13.941-4.784-4.418-1.293-8.968-2.13-13.46-3.168"/><path fill="#f3edf8" d="M497.003 515.116c20.048-3.747 40.096-7.495 60.57-10.845 1.563 2.147 2.535 4.034 3.865 5.62 3.5 4.173 4.624 12.686 2.278 15.73-1.082 1.404-1.833 3.474-1.81 5.23.041 3.08-1.019 4.642-4.033 3.888-3.907-.977-4.654 1.19-4.872 4.213-12.515 2.333-25.02 4.722-37.551 6.97a93.6 93.6 0 0 1-14.183 1.432c.162-3.823-.66-6.481-3.168-9.009-1.187-1.195-1.779-3.894-1.363-5.6 1.442-5.913 4.352-11.667.267-17.629m16.609 2.496-1.836-1.055c-.051.427-.226 1.191-.134 1.225.612.224 1.281.291 1.97-.17m103.092-141.411c13.4 1.413 25.168 6.248 32.776 17.84 3.861 5.885 2.259 12.615-2.13 17.647-4.868 5.581-10.2 11.153-16.367 15.114-9.548 6.133-19.977 10.897-30.729 16.103-2.75-1.04-4.804-1.94-8.164-3.412l6.95-3.896c-2.73-2.267-2.76-6.791-7.536-7.387-.737-.093-1.286-4.322-1.276-6.635.005-1.13 1.99-3.331 2.242-3.216 4.04 1.848 6.512-1.093 9.388-2.784 4.636-2.726 5.322-5.168 2.977-10.646 4.312-4.074 9.047-7.793 12.828-12.31 4.72-5.638 4.212-10.147-.728-16.302-.193-.234-.231-.116-.231-.116"/><path fill="#e9b9f1" d="M114.926 386.81c1.425-1.244 2.85-2.488 5.014-3.785 3.952-1.087 7.104-2.464 10.395-3.035 2.145-.372 4.492.428 6.749.703-.439 1.682-.818 3.384-1.333 5.042-.517 1.664-1.17 3.285-1.765 4.925-2.687 2.41-5.374 4.821-8.73 7.365-1.161.84-1.655 1.547-2.149 2.254-8.62 10.309-18.217 19.962-25.647 31.067-14.003 20.926-18.812 43.802-9.931 68.376.565 1.564.564 3.332.884 5.377-16.868-14.65-23.279-40.853-15.899-63.34 6.667-20.315 19.883-35.881 36.376-49.66 5.835 1.195 6.053.982 6.036-5.29"/><path fill="#fcbe3b" d="M711.567 242.816c1.354.28 2.57 1.3 3.42 1.053 6.02-1.744 11.88-4.087 17.954-5.579 6.663-1.635 12.78-5.565 20.125-4.65 1.464.183 3.296-1.42 4.744-2.488 5.52-4.073 11.537-6.504 18.961-6.095-11.285 12.021-22.794 24.254-34.835 35.94-8.229 7.984-17.199 15.204-26.37 22.505-2.771-.71-5.009-1.16-7.247-1.61l-1.265-1.237c2.154-1.624 4.141-3.565 6.497-4.803 4.424-2.324 3.394-5.371 1.13-8.157-2.306-2.84-5.238-2.291-7.847-.027-4.5 3.908-8.359 8.708-15.503 7.938-1.813-.196-4.107 1.992-5.835 3.483-4.569 3.945-5.958 4.026-10.53-.398-.072-.51-.113-.712-.154-.914 0 0 .042.094.256.01.429-.374.643-.666.857-.958 0 0 .01.106.207.002.403-.387.61-.67.816-.953 0 0 .005.078.203-.024.408-.363.618-.625.827-.887 0 0 .02.035.223-.082.476-.308.673-.559.793-.87 0 0 .001-.02.218-.122.478-.282.676-.514.811-.8 0 0 .008-.073.356-.129.734-.516 1.121-.977 1.508-1.437 9.791-9.519 19.582-19.037 29.68-28.71"/><path fill="#8784b5" d="M670 568.999c-14.416 3.944-28.742 8.262-43.266 11.756-34.17 8.221-68.774 14.429-103.833 16.644-28.374 1.792-56.887 1.404-85.34 1.912-2.204.04-4.417-.49-6.708-.763 81.472-2.065 160.74-15.656 237.77-43.121-1.001 4.909-2.489 9.443 1.377 13.572"/><path fill="#f8f7f8" d="M522.58 230.4c.24-1.106.45-2.409.802-2.448 6.427-.725 12.87-1.747 19.312-1.76 5.15-.01 7.362 3.705 4.663 8.843-4.61 8.773-9.435 17.658-15.604 25.345-23.301 29.033-51.85 51.94-84.926 70.178-.958.639-1.412.984-1.867 1.329-5.579 2.47-11.158 4.94-17.283 7.777-3.736 1.315-6.926 2.264-10.116 3.213.525-.863.839-2.096 1.606-2.534 29.119-16.628 54.375-38.206 77.695-61.98 13.129-13.385 24.828-28.174 37.083-42.406 1.466-1.702 2.376-3.882 4.285-7.085-6.014.74-10.814 1.33-15.65 1.528"/><path fill="#ecdef5" d="M457.038 552.112c-13.706.671-27.412 1.343-41.63 1.56-5.835-9.925-4.465-21.808-11.412-30.694 20.7-1.372 41.4-2.743 62.551-3.66-.078 1.967-.492 3.532-1.155 4.985-2.583 5.658-7.375 10.15-6.765 17.446.435 5.192-.578 5.277 4.981 3.927 1.772 2.435 1.293 3.751-1.804 4.365-1.66.33-3.182 1.358-4.766 2.07"/><path fill="#e0c5f0" d="M270.995 431.865c-8.21-3-16.81-5.236-24.543-9.173-13.006-6.621-14.338-17.421-3.998-27.81 9.803-9.85 22.156-15.815 34.741-21.05 12.398-5.156 25.144-9.48 37.753-14.124 1.15-.423 2.42-.515 3.96.14-4.951 2.54-9.935 5.02-14.847 7.633-11.904 6.335-23.787 12.742-32.76 23.19-3.684 4.292-5.688 9.043-2.608 15.172-.872 5.681-2.264 10.807-1.962 15.83.209 3.47 2.76 6.8 4.264 10.192"/><path fill="#ead6f4" d="M403.537 522.877c7.406 8.987 6.036 20.87 11.41 30.701-15.64.345-31.33.33-47.483.225.072-6.152-.557-11.661-6.836-14.851-.898-.456-1.917-1.83-1.894-2.753.136-5.298-3.22-8.963-5.713-13.392 2.062-.28 4.145-.22 6.888.268 4.801.279 8.942.129 13.083-.022 10.029-.092 20.057-.184 30.545-.176"/><path fill="#f0e5f5" d="M604.5 405.005c2.68 5.402 1.994 7.844-2.642 10.57-2.876 1.691-5.348 4.632-9.388 2.784-.251-.115-2.237 2.087-2.242 3.216-.01 2.313.54 6.542 1.276 6.635 4.775.596 4.805 5.12 7.536 7.387l-6.95 3.896a944 944 0 0 1 7.809 3.447c-14.3 5.546-28.94 10.918-44.271 16.093-.99-3.228-2.06-6.439-1.411-9.252.993-4.301 2.63-8.676 5.003-12.372 2.332-3.63 4.74-6.764 2.783-11.256 11.103-5.182 22.246-10.283 33.285-15.598 3.115-1.5 5.927-3.632 9.213-5.55M457.435 552.199c1.187-.8 2.709-1.829 4.37-2.158 3.096-.614 3.575-1.93 1.803-4.365-5.559 1.35-4.546 1.265-4.98-3.927-.611-7.297 4.181-11.788 6.764-17.446.663-1.453 1.077-3.018 1.606-4.919 9.72-1.715 19.438-3.043 29.58-4.319 4.51 6.013 1.6 11.767.158 17.68-.416 1.706.176 4.405 1.363 5.6 2.509 2.528 3.33 5.186 2.689 8.969-14.368 1.965-28.662 3.469-43.353 4.885"/><path fill="#f8f7f8" d="M553.408 539.001c-.189-3.071.558-5.24 4.465-4.262 3.014.754 4.074-.808 4.033-3.888-.023-1.756.728-3.826 1.81-5.23 2.346-3.044 1.222-11.557-2.278-15.73-1.33-1.586-2.302-3.473-3.448-5.593 4.045-1.403 8.101-2.436 12.715-3.218 1.139-.122 1.72-.495 2.301-.868 6.7-1.878 13.4-3.757 20.504-5.68 1.352 4.741 2.31 9.528 3.233 14.32.09.464.17 1.182-.084 1.42-6.178 5.779.05 11.459.256 17.54-6.82 2.005-13.819 3.553-20.767 5.302-7.469 1.88-14.89 3.95-22.74 5.887"/><path fill="#9692bc" d="M716.003 535.01c15.436-8.632 30.871-17.264 46.667-25.568 1.919 1.725 3.25 3.674 5.074 4.42 6.492 2.654 13.089 5.146 20.375 4.28.61-.073 1.33.772 1.998 1.191-15.993 7.92-31.987 15.838-48.704 23.656-6.89-1.952-12.801-4.61-19.681-3.31-1.56.294-3.801-3.018-5.729-4.67"/><path fill="#ecdef5" d="M561.636 426.16c2.325 4.485-.084 7.618-2.416 11.25-2.373 3.695-4.01 8.07-5.003 12.37-.65 2.814.42 6.025 1.04 9.265-7.84 2.485-15.994 4.774-24.157 7.035-3.755 1.04-7.525 2.026-11.692 2.55-1.622-9.541-2.156-18.228 7.116-24.149 2.04-1.302 2.362-4.379-.495-6.275 11.746-4.013 23.493-8.026 35.607-12.046"/><path fill="#ead6f4" d="M525.65 438.22c3.236 1.882 2.914 4.96.874 6.261-9.272 5.92-8.738 14.608-7.517 24.112a667 667 0 0 1-41.598 8.738c.131-1.388.48-3.108 1.175-3.262 5.9-1.304 5.226-6.607 6.575-10.582.59-1.74-.285-4.637.74-5.451 3.955-3.138 2.688-6.373 1.104-9.858 1.43-.35 2.86-.698 4.77-.891.84.27 1.088.134 1.222-.254 10.759-2.933 21.517-5.866 32.654-8.813"/><path fill="#fbae65" d="M655.184 328.084c-10.126 6.288-20.252 12.575-31.107 18.89-1.51-.189-2.515-.166-3.035-.658-5.724-5.404-11.372-10.888-17.041-16.35 10.649-7.344 21.298-14.688 32.424-21.767 2.031 1.691 3.575 3.127 5.14 4.54 1.646 1.487 4.621 2.856 4.737 4.443.439 5.993 5.123 7.957 8.882 10.902"/><path fill="#cba4e5" d="M350.992 419.29c17.75-2.687 35.5-5.374 53.752-7.932.503.129.946.13.946.13l.3-.358c1.425-.362 2.849-.723 4.689-.704 1.933 2.55 3.45 4.72 5.117 7.102-3.996 2.376-4.327 5.799-2.777 9.708-16.516 2.58-33.031 5.175-49.553 7.724-2.128.329-4.293.426-6.92.119.803-5.21-.056-9.162-4.116-12.304-.861-.668-.978-2.298-1.438-3.485"/><path fill="#e7d2f2" d="M486.608 448.157c1.979 3.506 3.246 6.74-.709 9.879-1.025.814-.15 3.712-.74 5.451-1.35 3.975-.674 9.278-6.575 10.582-.695.154-1.044 1.874-1.565 3.22-8.36 1.684-16.708 3.015-25.507 4.337-1.354-2.288-2.449-4.512-3.11-6.858-.797-2.832-.89-5.892-1.902-8.626-1.138-3.073-2.96-5.893-4.56-9.198 14.709-3.185 29.492-5.996 44.668-8.787"/><path fill="#8c8ab8" d="M715.645 535.054c2.286 1.607 4.527 4.92 6.087 4.624 6.88-1.3 12.79 1.36 19.332 3.382-17.144 6.862-34.664 13.552-52.634 19.948-1.84-1.096-3.231-1.9-4.622-2.702l-1.67 5.066c-3.788 1.22-7.575 2.441-11.75 3.644-4.254-4.146-2.766-8.68-1.387-13.604 15.43-7.036 30.858-13.675 46.644-20.358"/><path fill="#dcbbee" d="M271.365 432.013c-1.874-3.54-4.425-6.87-4.634-10.34-.302-5.023 1.09-10.149 2.064-15.472 7.717 7.47 17.451 9.906 28.101 12.023 1.058.318 1.479.32 1.9.32.572.029 1.144.058 1.963.645 1.588 2.357 2.568 5.017 4.35 5.767 3.1 1.303 6.675 1.701 10.09 1.978 4.937.399 13.3 5.746 14.799 9.885-19.601.706-39.048-.53-58.633-4.806"/><path fill="#fbbc41" d="M674.998 278.999c4.54 4.116 5.93 4.035 10.498.09 1.728-1.491 4.022-3.679 5.835-3.483 7.144.77 11.002-4.03 15.503-7.938 2.609-2.264 5.541-2.814 7.848.027 2.263 2.786 3.293 5.833-1.13 8.157-2.357 1.238-4.344 3.179-6.498 4.803l1.265 1.238c2.238.45 4.476.899 6.91 1.739-7.24 6.37-14.675 12.352-22.832 18.383-3.778-1.959-6.842-3.956-9.885-5.984-1.445-.964-2.722-2.51-4.296-2.896-8.464-2.08-8.863-2.392-9.444-10.41 0 0 .06.1.276.031a5 5 0 0 0 .89-.945c.548-.536 1.095-1.073 2.089-1.79.657-.333.82-.525.938-.757 0 0 .194-.337.748-.332.798.025 1.042.046 1.285.067"/><path fill="#d49dd4" d="M445.03 401.228c11.684-3.834 23.367-7.668 35.58-11.203 1.915 6.316 3.3 12.332 4.685 18.348 0 0-.106-.085-.29-.099a4.2 4.2 0 0 0-.995.545c-11.713 3.451-23.425 6.903-35.696 9.997-2.568-4.33-4.234-8.268-2.59-12.943.46-1.305-.425-3.083-.693-4.645"/><path fill="#f8a776" d="M603.64 329.945c6.03 5.483 11.678 10.967 17.402 16.371.52.492 1.526.47 2.688.705-7.62 4.377-15.625 8.727-23.618 13.1-.844.462-1.614 1.061-2.818 1.309-2.688-3.452-4.822-6.744-7.309-9.743-2.559-3.088-5.461-5.89-8.213-8.818 7.17-4.315 14.339-8.63 21.869-12.924"/><path fill="#e3b5ef" d="M134.29 390.551c.29-1.53.944-3.152 1.46-4.816.516-1.658.895-3.36 1.334-5.042-2.257-.275-4.604-1.075-6.749-.703-3.291.571-6.443 1.948-10.084 2.962 12.935-8.36 26.3-16.7 40.38-25.029 1.602-.596 2.488-1.201 3.375-1.807 2.744-1.38 5.489-2.76 8.754-3.871 3.16 2.374 6.256 4.218 5.22 8.439-14.462 9.92-28.925 19.839-43.69 29.867"/><path fill="#d8aee9" d="M330.456 436.904c-1.956-4.224-10.32-9.571-15.256-9.97-3.416-.277-6.99-.675-10.09-1.978-1.783-.75-2.763-3.41-4.106-5.603 16.375-.321 32.75-.25 49.557-.12.891 1.244 1.008 2.874 1.87 3.542 4.06 3.142 4.918 7.094 3.663 12.218-8.375.95-16.777 1.473-25.638 1.91"/><path fill="#b5b1ce" d="M790.462 519.227c-1.014-.313-1.733-1.158-2.343-1.086-7.286.867-13.883-1.625-20.375-4.28-1.824-.745-3.155-2.694-4.728-4.468 7.067-5.388 14.149-10.4 21.623-15.148 3.01 2.09 5.446 4.299 8.287 5.664 5.605 2.692 11.433 4.916 17.17 7.334-6.43 3.96-12.86 7.919-19.634 11.984"/><path fill="#d8aee9" d="M178.312 360.615c.704-4.152-2.393-5.996-5.192-8.415 16.182-6.684 32.34-13.605 48.93-19.247 12.059-4.1 24.683-6.546 37.078-9.636 1.716-.428 3.566-.321 5.499.013-29.726 10.05-58.658 21.787-86.315 37.285"/><path fill="#cc9ddd" d="M444.647 401.238c.652 1.552 1.537 3.33 1.078 4.635-1.645 4.675.021 8.613 2.184 12.928-11.245 3.063-22.645 5.784-34.467 8.47-1.973-3.944-1.642-7.367 2.354-9.743-1.666-2.383-3.184-4.552-4.75-7.07 11.04-3.301 22.13-6.255 33.601-9.22"/><path fill="#fbb457" d="M655.518 328.013c-4.093-2.874-8.777-4.838-9.216-10.831-.116-1.587-3.09-2.956-4.737-4.443-1.565-1.413-3.109-2.849-4.812-4.61-.15-.336-.114-.31.188-.38.53-.367.759-.663.987-.959 5.123-3.911 10.246-7.823 15.76-11.498 3.256 4.223 5.543 8.729 10.922 10.205 1.224.336 2.178 1.967 3.068 3.144 1.88 2.484 3.635 5.061 5.441 7.6-5.756 3.9-11.512 7.8-17.601 11.772"/><path fill="#cdc9dd" d="M846.945 477.995c-5.438 4.932-10.876 9.864-17.086 14.893-5.003-.505-9.618-.247-13.368-1.924-4.886-2.184-9.634-3.077-14.87-3.12-1.873-.015-3.733-1.804-5.598-2.783 5.19-4.753 10.38-9.507 16.197-14.195 3.269 4.337 7.388 5.118 12.036 5.472 7.56.577 14.876 4.353 22.689 1.657"/><path fill="#fab84b" d="M673.453 316.145c-2.14-2.443-3.895-5.02-5.775-7.504-.89-1.177-1.844-2.808-3.068-3.144-5.379-1.476-7.666-5.982-10.596-10.316 4.663-4.313 9.39-8.28 14.438-12.35.901 7.912 1.3 8.224 9.764 10.304 1.574.386 2.851 1.932 4.296 2.896 3.043 2.028 6.107 4.025 9.572 6.074-5.826 4.673-12.062 9.309-18.631 14.04"/><path fill="#f0e5f5" d="M833.972 444.93c1.626-2.89 3.252-5.78 5.523-8.857 8.22 2.124 15.811 4.39 23.366 6.77 3.106.979 6.136 2.202 9.2 3.314-3.378 5.455-6.756 10.91-10.595 16.193-6.752-3.721-13.14-7.116-19.296-10.887-2.957-1.811-5.479-4.333-8.198-6.533"/><path fill="#f09f91" d="M545.967 361.982c6.411-3.366 12.822-6.731 19.632-9.847 1.106 1.327 1.868 2.373 2.508 3.49 3.072 5.353 6.111 10.725 9.162 16.09-7.86 3.63-15.721 7.26-23.927 10.495-.856-4.284-.824-8.356-2.046-12.008-1.003-2.999-3.496-5.499-5.329-8.22"/><path fill="#eca0a1" d="M545.61 362.027c2.19 2.676 4.683 5.176 5.686 8.175 1.222 3.652 1.19 7.724 1.7 12.05a199 199 0 0 1-20.538 8.695c-2.605-6.706-4.532-13.228-6.458-19.75 6.417-3.042 12.835-6.083 19.61-9.17"/><path fill="#e0dde9" d="M833.693 445.118c2.998 2.012 5.52 4.534 8.477 6.345 6.156 3.77 12.544 7.166 18.995 11.093-2.616 3.634-5.392 6.89-8.689 9.909-1.22-.62-1.886-1.245-2.623-1.346-10.139-1.392-19.592-4.258-26.809-12.105 3.457-4.57 6.913-9.139 10.649-13.896"/><path fill="#c2bed6" d="M795.702 485.16c2.186.88 4.046 2.669 5.92 2.684 5.235.043 9.983.936 14.869 3.12 3.75 1.677 8.365 1.419 13.045 2.026-5.955 4.695-12.36 9.385-19.102 14.164-6.075-2.329-11.903-4.553-17.508-7.245-2.84-1.365-5.277-3.574-7.955-5.763 3.43-3.204 6.92-6.046 10.73-8.986"/><path fill="#e69eaf" d="M525.647 371.237c2.28 6.482 4.206 13.004 6.45 19.741-7.906 3.442-16.128 6.669-24.724 9.47-.142-4.275.198-8.122.255-11.973.017-1.16-.638-2.388-1.191-3.481-.718-1.42-1.642-2.737-2.477-4.099 7.112-3.205 14.223-6.411 21.687-9.658"/><path fill="#df9dbe" d="M503.579 380.911c1.216 1.346 2.14 2.662 2.858 4.083.553 1.093 1.208 2.322 1.191 3.48-.057 3.852-.397 7.7-.629 11.968-6.982 2.892-13.965 5.363-21.326 7.883-1.763-5.968-3.148-11.984-4.679-18.364 7.304-3.254 14.754-6.144 22.585-9.05"/><path fill="#f4a285" d="M577.63 371.604c-3.412-5.254-6.451-10.626-9.523-15.98-.64-1.116-1.402-2.162-2.165-3.61 5.005-3.271 10.07-6.172 15.481-9.108 3.1 2.89 6.003 5.693 8.562 8.78 2.487 3 4.621 6.292 6.963 9.804-6.284 3.567-12.62 6.785-19.318 10.114"/><path fill="#d8d4e4" d="M822.733 459.142c7.528 7.719 16.981 10.585 27.12 11.977.737.1 1.403.726 2.296 1.514-1.482 1.875-3.16 3.344-5.02 5.088-7.997 2.97-15.312-.806-22.873-1.383-4.648-.354-8.767-1.135-11.762-5.63 3.074-3.962 6.5-7.7 10.239-11.566"/><path fill="#e0c5f0" d="M263.35 359.86c-1.619-2.2-2.88-4.433-4.443-6.861 15.436-5.233 31.143-10.37 46.93-15.253 5.46-1.689 11.116-2.744 16.826-3.446-19.652 8.509-39.304 17.018-59.313 25.56"/><path fill="#f8f7f8" d="M872.35 445.95c-3.353-.905-6.383-2.128-9.49-3.107-7.554-2.38-15.144-4.646-23.159-7.009.675-2.474 1.787-4.898 3.15-7.577 4.743.782 9.293 1.62 13.71 2.912 4.71 1.38 9.28 3.234 13.942 4.784 1.53.509 3.16.713 5.152 1.063-.734 2.913-1.875 5.82-3.305 8.934"/><path fill="#e0dde9" d="m480.198 238.78-2.824 2.638.353 1.097c6.126-2.383 12.252-4.767 18.836-6.574.516.988.576 1.399.635 1.81l-33.583 14.3-.8-.942c5.51-4.977 11.021-9.953 16.876-14.55.398.994.452 1.608.507 2.221"/><path fill="#1c1826" d="M417.585 342.898a330 330 0 0 1 9.939-2.898c.758 1.011 1.122 2.053 1.486 3.449-5.74 1.768-11.477 3.183-17.658 4.227 1.752-1.83 3.949-3.286 6.145-4.743 0 0 .11-.015.088-.035"/><path fill="#d8d4e4" d="M417.471 342.509c-2.17 1.88-4.367 3.338-6.53 5.185-1.53 1.077-3.091 1.763-4.758 2.496-.397-1.242-.671-2.099-1.18-3.15 3.992-1.782 8.217-3.369 12.468-4.531"/><path fill="#8784b5" d="M682.494 565.323c.2-1.64.757-3.329 1.314-5.017 1.39.803 2.781 1.606 4.236 2.799-1.689.982-3.441 1.575-5.55 2.218"/><path fill="#e3b5ef" d="M114.604 386.91c.339 6.171.121 6.384-5.403 5.078 1.438-1.7 3.26-3.339 5.403-5.078"/><path fill="#f8f7f8" d="M497.59 237.729c-.451-.389-.51-.8-.628-1.832 3.936-1.902 7.928-3.184 12.246-4.178-.082 1.105-.303 2.423-.928 2.656-3.377 1.26-6.855 2.249-10.69 3.354m12.75-5.259c3.944-1.389 7.72-2.341 11.321-2.866-3.947 1.386-7.718 2.344-11.322 2.866"/><path fill="#fbfbfb" d="M480.536 238.623c-.393-.456-.447-1.07-.516-2.145.715-1.121 1.446-1.781 3.03-2.462 1.602.074 2.35.17 3.099.266-1.758 1.395-3.517 2.79-5.613 4.341"/><path fill="#ecdef5" d="M372.538 522.955c-3.687.249-7.828.399-12.264.257 3.74-.313 7.776-.334 12.264-.257"/><path fill="#d8d4e4" d="M403.65 347.064c-.479 1.266-1.317 2.505-2.49 3.793-.909-.826-1.483-1.701-2.09-2.625 1.507-.427 2.864-.811 4.58-1.168"/><path fill="#e0dde9" d="M486.388 234.251c-.988-.065-1.736-.16-3.048-.31.546-1.016 1.656-1.98 3.082-2.99.707.43 1.098.908 1.53 1.705-.415.734-.87 1.15-1.564 1.595"/><path fill="#e0c5f0" d="M244.29 369.891c.499-.603 1.315-1.236 2.486-1.854-.486.619-1.327 1.222-2.486 1.854"/><path fill="#d8aee9" d="M163.678 356.124c-.559.598-1.445 1.203-2.703 1.77.544-.614 1.46-1.188 2.703-1.77"/><path fill="#f3edf8" d="M572.72 500.17c-.295.415-.876.788-1.612.935.34-.476.833-.727 1.613-.935"/><path fill="#e3b5ef" d="M123.404 400.163c.197-.59.69-1.298 1.546-2.025-.175.623-.712 1.266-1.546 2.025"/><path fill="#e0c5f0" d="M237.682 360.997c-.195.333-.704.642-1.523.947.196-.327.702-.65 1.523-.947"/><path fill="#fbc330" d="M736.608 194.66c-.096.339-.461.798-1.129 1.328.085-.355.473-.782 1.13-1.328m97.599-19.901c-.051-.37.142-.897.57-1.589.047.368-.14.9-.57 1.589"/><path fill="#fbbc41" d="M681.612 271.65c-.112.337-.499.798-1.198 1.325.1-.356.51-.78 1.198-1.325m-1.837 1.484c.113.245-.085.477-.554.758-.036-.171.135-.445.554-.758"/><path fill="#e5c8f1" d="M234.246 535.958c.043-.164.321-.21.678-.104-.096.177-.27.199-.678.104"/><path fill="#fbbc41" d="M678.75 274.083c.124.243-.073.494-.566.79-.038-.17.142-.446.566-.79m-1.033.943c.052.203-.158.465-.604.824-.044-.19.149-.477.604-.824"/><path fill="#fab84b" d="M669.664 281.89q.075.321-.673.874-.075-.322.673-.875"/><path fill="#fbc330" d="M745.669 186.913q.082.304-.623.886-.082-.303.623-.886m-1.057.951q.078.343-.706.934c-.052-.227.181-.542.706-.934"/><path fill="#e5c8f1" d="M238.753 508.052c-.038.168-.314.223-.672.13.089-.18.262-.212.672-.13"/><path fill="#fbc330" d="M742.758 189.369c.096.2-.053.375-.403.59-.163-.209-.042-.427.403-.59m90.607-13.112c-.116-.187.009-.542.348-1.085.107.18 0 .549-.348 1.085"/><path fill="#e5c8f1" d="M223.747 504.173c.228.116-.153.373-.153.373s-.419-.136-.5-.273c.087-.163.255-.19.653-.1"/><path fill="#fbbc41" d="M676.68 275.95c.061.21-.145.494-.601.876-.055-.202.139-.503.6-.876m-1.025.955c.057.216-.157.508-.637.884q-.086-.321.637-.884"/><path fill="#fab84b" d="M674.966 278.691c-.211.287-.455.266-1.062.199-.127-.347.11-.648.628-1.03.32.119.362.321.434.831m-2.211.601c.092.204-.071.396-.447.643-.161-.215-.027-.452.447-.643"/><path fill="#fbc330" d="M741.808 190.23c.09.215-.1.427-.537.683-.15-.236.019-.48.537-.683m-1.058.87c.128.262-.07.502-.56.775-.04-.182.134-.46.56-.776"/><path fill="#e4c7f1" d="M254.749 456.142c.233.107-.136.393-.136.393s-.43-.118-.514-.256c.083-.174.25-.21.65-.137"/><path fill="#fbae65" d="M637.66 306.886c.04.2-.189.496-.697.865-.044-.208.193-.489.697-.865"/><path fill="#e7d2f2" d="M492.74 446.997c.12.424-.127.56-.601.322.04-.201.193-.28.601-.322"/><path fill="#d8aee9" d="M298.542 418.349q-.25.292-1.263-.007.25-.293 1.263.007"/><path fill="#cc9ddd" d="M405.742 411.086c.249.044-.052.401-.052.401s-.443 0-.55-.118c.045-.187.199-.257.602-.283"/><path fill="#df9dbe" d="M484.269 408.855c.01-.222.28-.408.803-.578-.013.215-.278.414-.803.578"/><path fill="#f3edf8" d="M616.7 376.037c-.043-.045.247.049.247.049s-.262-.041-.253.037.048-.04.006-.086"/><path fill="#fbc330" d="M739.707 192.034c.037.2-.19.46-.668.802-.032-.193.185-.467.668-.802"/><path fill="#1c1826" d="M445.141 332.116c.274-.574.728-.92 1.483-1.286-.233.49-.768 1.002-1.483 1.286"/><path fill="#f0e5f5" d="M513.593 517.902a3.27 3.27 0 0 1-1.951-.12c-.092-.034.083-.798.134-1.225.612.352 1.224.703 1.817 1.345"/></svg>