<svg xmlns="http://www.w3.org/2000/svg" xml:space="preserve" viewBox="0 0 958 600"><path fill="#fdfdfd" d="M691 601H1V1h958v600zm-70.625-237.935a138 138 0 0 0-2.618 3.728c-2.806 2.113-5.611 4.226-9.216 6.204-4.2-.982-4.238-3.64-2.61-6.792 1.989-3.852.17-8.102-2.564-8.75-5.546-1.314-4.759-4.136-3.452-7.617 1.152-3.069 3.482-5.88 3.909-8.995.726-5.294 3.486-7.879 8.346-8.878 2.824-.581 4.945-1.627 4.885-5.136-.057-3.302 1.34-5.263 5.041-6.188 3.252-.812 7.472-1.949 7.198-7.57 1.722-1 3.48-1.941 5.161-3.007 16.263-10.315 32.512-20.652 49.43-31.121 2.618-1.756 5.346-3.368 7.835-5.29 15.253-11.785 30.657-23.39 45.59-35.568 8.777-7.156 16.778-15.263 25.715-23.201 6.77-6.9 13.54-13.8 20.906-20.96 2.754-3.284 5.508-6.568 8.738-10.004.282-.21.452-.49 1.118-1.11l11.79-12.968 6.891 27.07 61.7-112.45c-17.617 3.39-33.891 6.523-50.958 9.732l-62.208 12.435 22.895 21.38-78.48 68.432 32.576-6.605c-1.116 1.52-1.692 2.52-2.468 3.327-10.615 11.04-21 22.318-31.969 32.995-9.859 9.596-20.367 18.526-31.238 27.96-12.485 9.5-24.97 19-38.104 28.779-15.115 9.605-30.23 19.21-46.051 28.965-14.579 7.45-29.158 14.9-44.319 22.002.042-.715-.189-1.854.167-2.083 4.574-2.95 9.23-5.776 13.871-8.623.977-.6 1.98-1.156 3.745-2.182l-17.575-.825c-5.249 6.205-11.34 4.081-13.713-.221-2.803-.546-5.1-1.096-7.43-1.4-1.042-.135-2.709-.174-3.133.424-2.662 3.747-6.08 2.195-9.4 1.705-1.27-.187-2.779-.683-3.818-.223-10.94 4.84-22.227 6.62-34.1 4.653-1.487-.247-3.902.004-4.608.964-5.6 7.613-14.5 4.397-21.612 6.886-.54.189-1.28-.264-1.934-.318-2.749-.227-5.5-.415-8.915-.666a7.5 7.5 0 0 1 .25-3.238c6.719-2.815 13.426-5.658 20.159-8.44 22.059-9.114 44.127-18.206 66.912-27.339 22.296-11.357 43.514-24.437 64.054-39.866 6.092-4.876 12.324-9.589 18.247-14.662 14.382-12.317 27.63-25.729 39.129-41.604 4.581-7.324 9.73-14.362 13.609-22.041 5.65-11.19 9.579-23.024 9.223-35.885-.342-12.408-5.786-21.712-16.757-27.503-12.644-6.673-26.193-8.157-41.103-6.41-27.879 2.508-53.419 12.452-78.982 24.797-4.429 2.24-9.062 4.153-13.25 6.779-15.388 9.65-30.628 19.537-46.598 29.516-12.347 9.101-24.047 18.918-33.918 30.913 1.62-.284 3.023-.941 4.377-1.686 7.836-4.308 15.6-8.75 23.506-12.926a266 266 0 0 1 21.502-10.156c18.172-7.1 36.726-12.757 57.086-14.675 3.304.179 6.708-.068 9.875.687 2.1.5 3.86 2.434 5.774 3.726-1.54 1.348-2.861 3.302-4.654 3.952-19.962 7.235-38.897 16.37-56.462 29.526-9.227 6.87-18.339 13.861-25.044 23.473 23.436-11.65 46.836-22.959 73.15-25.675l.841 1.323c-4.896 6.438-9.792 12.876-15.23 19.669-22.962 26.304-48.996 49.33-76.588 70.559-11.662 8.972-24.097 17.06-36.777 24.54-6.437 3.798-14.196 5.353-22.152 8.207l6.112.796c-20.819 14.407-41.634 26.62-65.02 34.232-4.71-2.015-13.941 1.554-17.164 6.942-1.147.24-2.294.481-3.882.096-7.18-4.036-12.961 1.354-19.282 2.973-.606.155-1.305 1.666-1.229 2.478.403 4.265-3.027 6.306-5.654 7.324-3.349 1.298-4.024 3.422-5.283 5.927-10.386-6.266-11.711-13.759-3.91-22.867 1.937-2.262 3.996-4.565 6.422-6.236 9.287-6.399 18.74-12.557 28.15-18.78 1.343-.888 2.78-1.634 5.02-2.937-1.637-.282-1.999-.465-2.26-.372-18.48 6.601-36.812 13.607-53.127 24.746-5.279 3.604-10.084 8.086-14.48 12.757-5.429 5.769-5.89 12.786-1.363 19.175 2.188 3.086 6.19 4.886 9.377 8.077.584 1.809.874 3.79 1.81 5.392 2.17 3.716 1.616 5.852-2.465 6.798-3.257.754-6.62 1.045-10.932 1.692l-4.396 6.829-.603-.886c-1.525.974-3.05 1.948-5.294 2.678-8.373-4.779-16.746-9.558-25.378-14.96-10.02-11.335-10.678-19.89-2.187-32.272 2.198-3.206 4.981-6.011 8.112-9.283 29.695-24.206 63.597-40.448 99.788-52.501-2.132-.331-4.17-.482-6.032.02-16.507 4.447-33.291 8.134-49.38 13.793-15.436 5.428-30.14 12.937-45.8 19.695-.743.451-1.486.903-2.877 1.463-1.803 1.173-3.607 2.346-6.1 3.675-13.258 8.096-25.862 16.97-34.243 30.493-7.35 11.86-6.18 24.1 3.382 34.2 10.325 10.906 23.617 16.78 37.922 21.78.627.326 1.254.652 1.816 1.788 1.115 8.656 9.525 10.544 14.916 15.98-6.211 5.238-12.79-3.326-18.668.661-1.068 7.586-1.147 8.965-15.96 6.52-2.413 2.755-4.633 5.29-7.565 7.788-11.833-5.986-24.231-11.086-35.355-18.183-13.725-8.758-23.583-20.727-21.393-38.751.364-2.997 1.076-5.95 1.627-8.924l-1.518-.85c-4.454 6.68-9.546 13.031-13.21 20.12-5.301 10.26-5.049 21.075 1.206 30.932 3.426 5.4 7.568 10.714 12.474 14.742 25.122 20.622 55.325 29.614 86.915 37.04 1.795.57 3.59 1.14 5.465 2.426 1.46 4.743 4.547 6.841 9.59 6.31 2.75-.29 5.557-.052 8.456.659 1.36.825 2.622 2.057 4.095 2.407 7.367 1.75 14.806 3.199 22.188 4.89 7.303 1.672 15.212 2.273 21.662 5.633 5.9 3.074 11.481 1.07 17.098 2.179 5.221 1.03 10.675.875 16.023 1.285.456.035 1.215.315 1.282.607 1.621 7.088 5.072 3.851 8.262 2.11 2.161 1.236 4.458 2.229 6.742 2.198 5.063-.068 10.293.04 15.138-1.18 7.775-1.96 13.655 2.631 19.646 5.393 6.534 3.012 11.82 3.975 19.085 2.009 7.02-1.9 15.02-.21 22.588-.016.548.014 1.033.805 1.624 1.048 3.105 1.275 6.241 2.471 9.35 3.734 1.552.63 3.208 1.139 4.57 2.065 2.239 1.52 4.032 3.929 6.442 4.923 9.52 3.93 11.412 10.535 10.296 17.896-1.07-.017-2.138-.034-3.34-.7l-11.323 1.305.262 1.807c3.41-.46 6.821-.921 11.162-1.312 49.183 1.357 98.098-1.423 146.54-10.281 15.962-2.919 31.715-6.976 48.376-10.534 14.73-4.3 29.46-8.602 44.984-12.906 22.232-8.654 44.78-16.589 66.597-26.185 17.997-7.916 35.13-17.798 53.288-27.146 9.93-6.244 20.117-12.121 29.737-18.812 17.996-12.516 34.28-26.89 45.784-45.933 7.46-12.348 12.1-25.466 10.724-41-1.115-7.69-3.84-14.66-8.402-21.054-7.525-10.545-17.472-18.204-28.51-24.533-23.205-13.306-48.515-20.566-74.627-25.39-1.565-.289-3.203-.18-4.807-.257 1.293 1.287 2.68 1.71 4.065 2.14 19.562 6.078 38.81 12.942 55.712 24.878 11.33 8.002 20.854 17.58 23.272 32.286-.78 2.56-4.039 5.726 1.887 7.531-.138 1.404-.276 2.807-1.147 4.268l-6.83 4.962c1.627 2.726 3.24 5.431 4.769 8.862-.428 1.372-.856 2.745-1.592 4.497-.141.316-.375.532-1.454.637-6.258 2.247-8.752 7.5-6.074 12.822-1.491 2.048-2.982 4.097-5.253 6.148-1.756.384-4.052.194-5.176 1.251-4.787 4.499-9.8 8.949-13.632 14.216-3.893 5.35-15.796 9.289-21.477 5.764-.61.406-1.268.891-1.968 1.305-4.938 2.919-9.786 4.043-14.806-.059-1.077-.88-3.343-1.481-4.435-.942-3.322 1.639-6.321 3.923-9.48 5.902-.95.595-2.223 1.662-2.984 1.41-4.895-1.618-7.82 3.149-11.988 3.456-3.851.284-7.853.635-11.543-.171-1.257-.275-4.763-2.792-2.209-6.372.99-1.387.494-3.833.95-6.42 1.917-1.43 3.835-2.86 6.449-4.381 6.944-7.602 13.888-15.204 21.317-23.216 2.685-6.913 5.37-13.827 8.098-21.666-.11-4.02-.22-8.039-.308-12.791-2.52-9.553-8.973-16.224-16.576-21.818-15.979-11.756-34.374-17.952-53.449-22.353-7.862-1.814-15.83-3.173-23.75-4.74l-.293 1.188c2.286.813 4.56 1.659 6.86 2.432 13.268 4.461 26.36 9.338 37.824 17.62 7.286 5.264 13.37 11.49 15.144 20.855 1.462 7.72-1.685 14.323-5.343 21.406-3.2 3.984-6.4 7.968-10.198 12.212-6.539 5.047-13.077 10.094-20.492 15.005-2.115-.36-4.22-.787-6.345-1.07-4.008-.532-8.54-.022-9.731-5.577-.12-.557-1.221-1.188-1.936-1.286-4.534-.625-8.94-1.6-13.55.674-2.98 1.471-6.646 1.732-10.052 2.116-4.332.49-8.72.464-13.07.832-3.987.338-7.944 1.114-11.935 1.325-8.093.43-16.327-.989-24.172 2.36-3.157 1.348-3.671-.927-3.175-3.787 7.17-3.861 14.819-7.056 21.374-11.771 6.656-4.788 12.864-10.551 18.106-16.854 5.3-6.374 4.75-14.034-.375-19.68-7.646-8.42-17.529-12.768-28.656-14.733l-.46.207c.148.05.295.1.385.933 2.034 4.416 3.117 8.83-.823 13.239-3.515.25-3.183 2.74-3.076 5 0 0 .115.122-.678.052m-545.212 26.15c-10.925 15.83-18.88 32.571-16.155 52.595 1.986 14.591 9.401 26.037 21.161 36.654-6.365-14.662-10.163-28.512-7.01-43.015 1.96-9.015 5.656-17.653 9.032-26.999 3.094-4.926 5.79-10.165 9.37-14.71 6.576-8.347 13.673-16.285 21.16-24.713 7.288-6.173 14.307-12.701 21.912-18.457 32.983-24.961 70.138-41.821 108.943-55.376 7.274-2.54 14.617-4.882 21.928-7.315-1.77-.852-3.373-.938-4.914-.668-40.7 7.13-79.17 20.634-114.635 41.854-13.924 8.331-26.721 18.544-40.664 28.115-10.999 9.49-21.6 19.352-30.128 32.035m617.6-302.139c4.997-5.21 10.746-9.892 14.85-15.73 12.944-18.411 4.58-44.576-17.01-53.304-8.751-3.476-17.605-4.202-27.366-1.06-9.402 1.888-15.175 8.81-21.181 15.356-9.752 10.631-12.506 26.848-5.79 39.956 6.9 13.467 18.281 20.69 34.607 20.996 7.754.366 14.575-2.512 21.89-6.214M849.8 372.396l-.012 1.174c.162.002.466.014.467.003.03-.39.032-.781-.455-1.177M704.787 196.502l-.28-.097s.074.21.28.097"/><path fill="#f4f3f9" d="M614.009 407.092c.073 2.44.587 4.715 3.744 3.367 7.845-3.349 16.079-1.93 24.172-2.36 3.99-.211 7.948-.987 11.936-1.325 4.349-.368 8.737-.342 13.069-.832 3.406-.384 7.072-.645 10.053-2.116 4.609-2.274 9.015-1.3 13.55-.674.714.098 1.816.729 1.935 1.286 1.191 5.555 5.723 5.045 9.731 5.577a41 41 0 0 1 6.57 1.416c-2.777 2.408-5.779 4.471-9.068 6.58-.755.37-1.223.694-2.027 1.071-2.218 1.289-4.1 2.524-6.321 3.84-33.125 17.677-67.786 30.514-103.564 40.425-14.856 4.115-29.854 7.718-45.211 11.536-16.515 2.912-32.607 5.842-49.139 8.756-5.458.695-10.476 1.406-15.89 2.078-1.446.115-2.494.269-3.97.372-14.478 1.281-28.528 2.613-43.043 3.88-13.88.301-27.293.753-40.71 1-9.606.177-19.216.079-29.27.017-7.484-.442-14.523-.796-21.567-1.52-.689-4.264-3.627-4.963-6.907-5.519-2.707-.46-5.33-1.411-8.965-2.414 1.678-1.435 2.12-2.142 2.635-2.202 4.728-.545 9.137-1.454 13.183-4.52 1.976-1.499 5.737-2.235 8.008-1.418 4.673 1.682 7.01-2.122 10.465-3.104 4.385-1.246 6.406-4.18 5.851-8.916 5.201-.844 10.035-1.881 14.924-2.347 4.196-.4 8.49.199 12.676-.25 10.146-1.089 20.296-2.281 30.354-3.97 3.377-.566 7.948-.524 9.218-5.691 4.044-.41 7.665-.636 11.256-1.1 10.112-1.305 20.211-2.707 30.743-4.033 1.259.028 2.118.147 2.92-.015 23.893-4.83 48.065-8.613 71.586-14.85 22.707-6.023 44.742-14.581 67.073-22.025"/><path fill="#f8f8fb" d="M448.994 565.715c.331-7.184-1.56-13.789-11.08-17.719-2.41-.994-4.204-3.402-6.443-4.923-1.362-.926-3.018-1.435-4.57-2.065-3.109-1.263-6.245-2.459-9.35-3.734-.59-.243-1.076-1.034-1.624-1.048-7.568-.194-15.567-1.885-22.588.016-7.265 1.966-12.55 1.003-19.085-2.009-5.991-2.762-11.871-7.352-19.646-5.393-4.845 1.22-10.075 1.112-15.138 1.18-2.284.03-4.58-.962-6.742-2.198-3.19 1.741-6.64 4.978-8.262-2.11-.067-.292-.826-.572-1.282-.607-5.348-.41-10.802-.254-16.023-1.285-5.617-1.109-11.197.895-17.098-2.179-6.45-3.36-14.359-3.961-21.662-5.634-7.382-1.69-14.82-3.139-22.188-4.889-1.473-.35-2.736-1.582-4.154-2.763-.059-.355-.06-.355.305-.362 1.12-.96 1.876-1.915 3.048-2.908 21.763 2.773 43.11 5.583 64.807 8.611 12.829.87 25.307 1.52 38.224 2.263 9.48.379 18.521.665 28.007 1.033 9.818.297 19.19.511 29.024.805 15.065-.302 29.67-.684 44.755-.993 10.91-.479 21.339-1.029 31.817-1.302.381.55.711.824 1.042 1.098.305-.492.61-.984 1.333-1.572 5.43-.53 10.442-.963 15.582-1.075.736.775 1.343 1.228 1.95 1.682.352-.79.704-1.579 1.462-2.479 3.466-.422 6.525-.733 9.638-.728.82.577 1.586.838 2.352 1.098-.165-.526-.33-1.052-.143-1.763 18.147-3.186 36.108-5.445 53.697-9.375 21.805-4.873 43.301-11.13 65-16.401 1.393 1.042 2.717 1.697 4.972 2.813-.497-2.45-.712-3.512-.594-4.739 3.11-1.087 5.887-2.01 8.67-2.568.209 1.477.41 2.589.512 3.146-1.68 1.448-4.173 2.656-4.142 3.795.044 1.614 1.948 3.178 2.927 4.577 5.627-2.295 9.143-7.594 16.845-6.548-2.022 2.177-3.12 3.38-4.24 4.559-.956 1.006-1.938 1.985-3.349 2.977-4.146.334-7.853.667-11.799.73-1.746.243-3.253.756-4.978 1.557-7.61 2.096-14.919 4.546-22.42 5.52-6.533.85-12.918 1.246-18.82 4.672-2.013 1.17-4.778 1.025-7.19 1.53-2.077.436-4.798.27-6.089 1.538-4.708 4.62-10.346 2.455-15.694 3.228l-1.434-5.57c-2.53 1.803-4.45 3.417-6.593 4.642-3.192 1.823-6.423 3.766-9.892 4.801-1.055.315-2.994-2.148-4.453-3.423-2.184-1.91-7.014-1.596-7.953.63-1.467 3.48-2.844 6.996-3.903 9.615.972 2.342 2.731 4.54 2.364 6.291-.347 1.652-2.858 2.937-4.566 4.178-.753.546-1.889.542-2.825.863-3.148 1.08-3.204 3.024-.6 4.447 2.495 1.364 5.413 2.39 8.228 2.642 5.65.506 6.764 1.163 6.277 6.69-.253 2.878-1.448 5.672-2.572 8.7-30.787 2.943-61.22 5.69-91.654 8.435m49.55-45.111c2.519-2.753.482-3.529-1.783-3.44-2.14.085-4.25.942-6.374 1.459l-.042 1.614c2.487.215 4.974.431 8.199.367m133.984-24.62 1.855-1.846q-1.489-.135-2.977-.274c.143.7.286 1.4 1.122 2.12m-127.622 22.287.164 1.492 1.334-.343c-.3-.425-.602-.85-1.498-1.149"/><path fill="#f7f7fa" d="M284.844 378.537c.581-2.758 1.256-4.882 4.605-6.18 2.627-1.018 6.057-3.06 5.654-7.324-.076-.812.623-2.323 1.229-2.478 6.32-1.619 12.102-7.009 19.228-2.413-4.31 1.72-8.567 2.88-12.823 4.04 2.24.862 4.238.87 6.208.641 26.173-3.052 51.782-8.749 76.67-17.353 16.599-5.739 32.934-12.243 49.388-18.404l.386 2.889c3.415.251 6.166.44 8.915.666.655.054 1.394.507 1.934.318 7.112-2.49 16.012.727 21.612-6.886.706-.96 3.12-1.21 4.607-.964 11.874 1.968 23.162.187 34.1-4.653 1.04-.46 2.549.036 3.82.223 3.32.49 6.737 2.042 9.399-1.705.424-.598 2.091-.56 3.133-.423 2.33.303 4.627.853 7.43 1.399 2.372 4.302 8.464 6.426 13.713.221l17.575.825c-1.765 1.026-2.768 1.583-3.745 2.182-4.641 2.847-9.297 5.672-13.871 8.623-.356.23-.125 1.368-.135 2.516-3.6 2.228-7.232 4.024-11.225 5.827-14.791 5.887-29.222 11.768-44.036 17.724-6.2 2.042-11.991 4.088-17.837 5.964-39.328 12.62-79.333 21.79-121.22 23.453-6.701.2-13.02 1.112-19.22.595-11.117-.927-22.163-2.714-33.5-4.395-4.173-1.81-8.083-3.37-11.994-4.928"/><path fill="#fdb50a" d="M672.968 253.908c10.221-9.224 20.729-18.154 30.588-27.75 10.97-10.677 21.354-21.955 31.969-32.995.776-.807 1.352-1.808 2.468-3.327l-32.576 6.605 78.48-68.433-22.895-21.379c21.322-4.262 41.765-8.349 62.606-12.079 1.489 1.4 2.417 3.033 3.7 3.39 6.999 1.948 9.882 7.263 7.116 13.048-1.215 2.541-1.542 5.493-2.444 8.2-1.918 5.753-3.934 11.472-5.96 17.186-.148.419-.637.82-1.065 1.02-4.35 2.026-5.116 8.768-11.231 8.535-.427-.016-.843.969-1.343 1.395-3.825 3.263-7.439 6.84-11.566 9.664-5.064 3.467-10.266 20.14-7.638 26.095-.056.348-.226.626-1.158.886-4.673-1.388-8.421-1.584-11.026 2.604-2.103 3.38.498 5.398 2.34 7.61-6.769 6.9-13.538 13.8-21.005 20.767-2.118-.384-3.51-1.023-4.965-1.251-3.908-.615-7.997.256-8.9 4.213-.798 3.502-2.232 5.048-5.298 6.116-1.313.458-2.422 1.712-3.438 2.781-5.085 5.349-11.411 8.522-18.51 9.854-3.397.638-6.413.945-8.135 4.506-.418.865-2.483 1.821-3.249 1.489-5.513-2.398-9.54 1.968-13.862 3.44-6.258 2.133-11.736 6.545-17.563 9.956-2.684 1.571-4.758 1.434-5.44-2.146"/><path fill="#f8f8fb" d="M429.994 449.19c-.833 5.092-5.404 5.05-8.78 5.617-10.059 1.688-20.209 2.88-30.355 3.969-4.186.449-8.48-.15-12.676.25-4.889.466-9.723 1.503-14.924 2.347.555 4.737-1.466 7.67-5.85 8.916-3.456.982-5.793 4.786-10.466 3.104-2.27-.817-6.032-.08-8.008 1.417-4.046 3.067-8.455 3.976-13.183 4.521-.516.06-.957.767-2.635 2.202 3.634 1.003 6.258 1.955 8.965 2.414 3.28.556 6.218 1.255 6.499 5.584-2.798.175-5.194-.083-7.614-.691-.748-1.075-1.472-1.798-2.195-2.521-.592.87-1.183 1.74-2.225 2.661-3.467-.005-6.484-.061-9.86-.305-13.53-1.607-26.748-2.677-39.854-4.537-14.947-2.12-29.794-4.945-44.993-7.671-14.627-4.552-28.947-8.897-43.266-13.242l6.852-7.823c14.813 2.445 14.892 1.066 15.96-6.52 5.879-3.987 12.457 4.577 18.668-.66-5.39-5.437-13.801-7.325-14.502-16.283 11.091 2.486 21.769 5.274 32.783 8.243 12.831 2.37 25.308 4.665 37.828 6.688 4.902.793 9.903.975 15.256 1.614 15.457 1.242 30.518 2.307 46.045 3.438 9.75-.023 19.041.058 28.32-.245 11.746-.384 23.482-1.081 35.684-1.584 6.483-.262 12.504-.583 18.526-.904m-109.599 33.012 1.175.012c.002-.162.014-.466.003-.467-.39-.03-.781-.032-1.178.455"/><path fill="#2d305d" d="M435.321 328.891c-16.772 6.336-33.107 12.84-49.707 18.579-24.887 8.604-50.496 14.3-76.67 17.353-1.97.23-3.967.221-6.207-.641 4.256-1.16 8.512-2.32 13.043-3.726 1.422-.489 2.57-.73 4.347-1.226 6.06-2.203 11.491-4.15 16.921-6.098 22.998-8.2 43.813-20.413 64.632-34.82l-6.112-.796c7.956-2.854 15.715-4.41 22.152-8.207 12.68-7.48 25.115-15.568 36.777-24.54 27.592-21.229 53.626-44.255 77.252-70.696 3.9 1.593 6.132 1.673 9.245-1.572 2.527-2.635 7.37-3.048 11.089-4.11-2.63 3.84-4.97 7.501-7.72 10.823-25.257 30.491-55.814 54.66-89.86 74.52-11.768 6.866-23.998 12.94-36.197 19.472 1.258-.1 2.455.007 3.528-.308 15.438-4.54 31.173-8.299 46.199-13.945 16.456-6.184 32.253-14.124 48.678-21.106 4.34 3.538 3.68 7.039.695 9.97l4.584 5.154c-22.065 9.1-44.133 18.192-66.192 27.306-6.733 2.782-13.44 5.625-20.477 8.614"/><path fill="#7d4fb4" d="M614.293 406.882c-22.615 7.654-44.65 16.212-67.357 22.234-23.521 6.238-47.693 10.02-71.586 14.851-.802.162-1.661.043-2.88-.337 1.198-3.448 3.137-5.626 7.078-4.003.781.322 1.976.031 2.845-.317 3.298-1.323 6.493-3.82 9.816-3.977 6.674-.314 10.784-4.573 14.349-8.784 3.638-4.298 7.76-6.896 12.787-8.874 4.17-1.64 7.328-4.552 7.99-9.695 11.332-3.81 22.429-7.17 33.313-11.117 17.05-6.183 33.723-13.235 48.692-23.731a960 960 0 0 0 8.88-6.745 90 90 0 0 0 2.948-3.252s-.115-.123.216-.2c1.39-1.698 2.448-3.318 3.507-4.939 3.178-4.393 2.095-8.806.084-13.609.024-.386.012-.374.012-.374 11.167 1.586 21.05 5.933 28.696 14.355 5.124 5.645 5.675 13.305.375 19.679-5.242 6.303-11.45 12.066-18.106 16.854-6.555 4.715-14.205 7.91-21.659 11.981"/><path fill="#f9f9fb" d="M656 493.999c.97-.992 1.953-1.971 2.909-2.977 1.12-1.18 2.218-2.382 4.24-4.56-7.702-1.045-11.218 4.254-16.845 6.55-.979-1.4-2.883-2.964-2.927-4.578-.031-1.14 2.462-2.347 4.142-3.795-.101-.557-.303-1.67-.154-3.272 14.075-6.087 27.975-11.29 41.48-17.372 19.206-8.647 37.676-18.689 54.141-32.04-.18 1.964.315 4.41-.675 5.797-2.554 3.58.952 6.097 2.21 6.372 3.689.806 7.69.455 11.542.171 4.167-.307 7.093-5.074 11.988-3.455.76.251 2.034-.816 2.984-1.41 3.159-1.98 6.158-4.264 9.48-5.903 1.092-.539 3.358.063 4.435.942 5.02 4.102 9.868 2.978 14.806.06.7-.415 1.359-.9 1.968-1.306 5.681 3.525 17.584-.414 21.477-5.764 3.832-5.267 8.845-9.717 13.632-14.216 1.124-1.057 3.42-.867 5.492-.932-5.627 6.97-11.214 13.986-17.6 20.18-8.034 7.794-16.72 14.915-25.448 22.405-8.856 6.141-17.39 12.204-26.274 18.119-5.246-1.202-6.74-.092-7.817 5.315-.1-.01.097-.04-.305-.13-3.926.687-7.228-.306-10.673-.728-7.495-.918-15.506-.492-22.869 1.242-6.44 1.516-12.342 5.062-19.382 3.385-1.076-.257-2.462.626-3.663 1.092-2.451.952-4.792 2.352-7.323 2.899-6.322 1.365-13.157 1.317-18.993 3.743-8.508 3.538-16.939 5.122-25.978 4.166"/><path fill="#52479b" d="M513 512.111c-3.06.312-6.119.623-9.904.988-1.557.213-2.39.373-3.222.532-5.011.434-10.022.868-15.788 1.337-1.2.11-1.645.183-2.09.257-10.428.55-20.857 1.1-31.664 1.16.52-1.373 1.272-2.718 2.344-3.062 5.951-1.913 11.925-3.815 18-5.262 5.084-1.211 11.07-.498 15.306-2.96 6.116-3.556 12.17-6.759 18.837-9.181 5.793-2.105 11.016-5.73 16.722-8.134 5.185-2.185 12.004-1.121 14.565-8.202.364-1.007 2.555-1.274 3.776-2.074 1.127-.737 2.086-1.729 3.119-2.609 14.934-3.836 29.932-7.439 44.788-11.554 35.778-9.91 70.439-22.748 103.903-40.276 2.568.312 4.459.554 6.35.797l-.032-4.839c.468-.324.936-.648 1.85-.702 2.957 1.41 5.373 2.89 7.998 3.62 6.345 1.764 11.475-3.701 18.434-2.671 6.57.973 14.23-1.308 20.576-4.075 6.349-2.768 14.385-2.823 18.74-9.815.645-1.036 3.24-.857 4.934-1.24-6.944 7.601-13.888 15.203-21.248 22.492-2.142-.367-3.945-.756-5.573-.385-1.718.392-3.19 1.895-4.907 2.251-15.18 3.148-29.465 9.264-44.701 12.636-13.552 2.999-25.903 11.365-38.845 17.228-2.623 1.188-5.511 1.797-8.29 2.632-3.927 1.181-8.331 1.572-11.694 3.654-5.531 3.425-10.983 5.886-17.63 5.42-2.416-.17-5.02.104-7.315.857-7.134 2.342-14.173 4.977-21.226 7.56-12.91 4.726-25.818 9.459-38.698 14.268-6.193 2.312-12.17 6.147-18.517 6.86-7.195.809-11.145 5.986-16.705 8.86-.731.378-.808 2.021-1.436 3.223a25 25 0 0 1-.758.41"/><path fill="#f9f9fb" d="M608.94 373.064c-14.569 10.564-31.243 17.616-48.292 23.799-10.884 3.947-21.981 7.307-33.676 11.107-2.359.511-4.024.846-6.035 1.026-2.06-.987-3.727-1.705-4.11 1.517-2.13.591-3.977.973-5.825.953.735-2.045 1.09-4.649 2.285-5.121 2.28-.9 3.988-1.247 3.146-4.306-.147-.534 1.267-1.747 2.176-2.28 3.549-2.077 6.446-5.592 11.47-4.52.942.202 2.513-2.539 3.794-3.922-1.421-.556-2.807-1.245-4.274-1.623-1.083-.28-2.272-.154-4.429-.257l7.348-7.128c-.106-1.144.539-1.216 1.18-1.306 4.352-.61 6.055-3.746 5.197-10.156-.55-4.113-3.93-2.393-6.313-2.81a131 131 0 0 1-11.994-2.666 1675 1675 0 0 1 20.82-8.933c8.12-3.52 16.044-6.654 23.673-10.39 14.51-7.105 28.85-14.554 43.597-21.945 6.945-3.577 13.553-7.069 20.162-10.561.728 5.15-3.492 6.287-6.744 7.1-3.702.924-5.098 2.885-5.041 6.187.06 3.51-2.06 4.555-4.885 5.136-4.86 1-7.62 3.584-8.346 8.878-.427 3.115-2.757 5.926-3.91 8.995-1.306 3.481-2.093 6.303 3.453 7.617 2.734.648 4.553 4.898 2.564 8.75-1.628 3.152-1.59 5.81 3.01 6.86"/><path fill="#4c4591" d="M514.005 511.557c.38-1.057.457-2.7 1.188-3.078 5.56-2.874 9.51-8.051 16.705-8.86 6.348-.713 12.324-4.548 18.517-6.86 12.88-4.81 25.788-9.542 38.698-14.269 7.053-2.582 14.092-5.217 21.226-7.559 2.295-.753 4.899-1.027 7.315-.858 6.647.467 12.099-1.994 17.63-5.419 3.363-2.082 7.767-2.473 11.695-3.654 2.778-.835 5.666-1.444 8.289-2.632 12.942-5.863 25.293-14.23 38.845-17.228 15.236-3.372 29.522-9.488 44.701-12.636 1.717-.356 3.189-1.859 4.907-2.25 1.628-.372 3.431.017 5.225.43-1.85 1.789-3.768 3.218-5.822 4.96-16.603 13.662-35.073 23.704-54.279 32.351-13.505 6.081-27.405 11.285-41.487 17.007a833 833 0 0 1-9.337 3.077c-1.81.628-2.97 1.074-4.131 1.521-21.63 5.659-43.126 11.915-64.931 16.788-17.589 3.93-35.55 6.19-53.92 9.27-.576.081-1.034-.1-1.034-.1"/><path fill="#6a47c7" d="M188.217 463.208c14.676 4.362 28.996 8.707 43.478 13.611.007 2.757-.079 4.962-.323 7.15-.28 2.51-.702 5.005-1.058 7.507-.19 1.328.085 3.283-.667 3.83-.963.698-3.153.859-4.112.211-4.563-3.082-6.103-.147-7.532 3.364-30.986-6.991-61.19-15.983-86.31-36.605-4.907-4.028-9.049-9.343-12.475-14.742-6.255-9.857-6.507-20.672-1.205-30.932 3.663-7.089 8.755-13.44 13.209-20.12l1.518.85c-.551 2.973-1.263 5.927-1.627 8.924-2.19 18.024 7.668 29.993 21.393 38.75 11.124 7.098 23.522 12.198 35.711 18.202"/><path fill="#333666" d="M799.599 454.818c8.405-7.412 17.092-14.533 25.127-22.328 6.385-6.193 11.972-13.21 17.988-20.18 1.566-2.369 3.057-4.418 4.913-7.02a991 991 0 0 0 6.461-12.258c.327-.115.56-.331 1.196-.88 4.438-5.222 8.959-8.74 15.92-6.82.978.27 2.413-.176 3.324-.77 3.735-2.432 7.276-5.167 11.044-7.544 1.568-.99 3.526-1.36 5.307-2.013 1.497 14.724-3.143 27.842-10.603 40.19-11.505 19.043-27.788 33.417-45.784 45.933-9.62 6.691-19.806 12.568-30.214 18.607-.276-3.565-.735-7.137.257-10.245 2.43-7.616 1.78-10.328-4.936-14.672"/><path fill="#303463" d="M530.851 129.583c24.842-12.164 50.382-22.108 78.744-24.223 2.12 3.103 3.757 5.81 5.026 8.579-15.253 7.376-20.67 21.247-13.516 34.185-1.018 5.824-2.997 11.341 1.484 15.987-8.417-.488-16.621-2.328-24.388-1.187-27.58 4.052-51.913 16.379-74.905 31.63-1.614 1.071-3.462 1.792-5.226 2.346a71 71 0 0 1-.062-1.65c16.925-12.986 35.86-22.121 55.822-29.356 1.793-.65 3.114-2.604 4.654-3.952-1.913-1.292-3.673-3.225-5.774-3.726-3.167-.755-6.571-.508-10.262-1.156 1.162-1.596 2.72-2.714 4.258-3.855.743-.552 2.123-1.222 2.07-1.714-.355-3.255.075-8.052-1.821-9.37-3.596-2.5-7.421-7.362-13.241-3.687-1.124.71-3.937.638-4.514-.146-.782-1.061-.38-3.202-.068-4.798.267-1.362 1.123-2.61 1.719-3.907"/><path fill="#373d74" d="M614.99 113.879c-1.638-2.708-3.275-5.416-4.953-8.466 13.985-2.193 27.534-.709 40.178 5.964 10.971 5.791 16.415 15.095 16.757 27.503.356 12.86-3.572 24.696-9.223 35.885-3.879 7.679-9.028 14.717-14.344 22.18-4.33.443-7.922.944-11.521.997-3.862.057-5.86-1.643-6.028-6.016-.168-4.347-1.911-8.618-2.239-12.978-.385-5.114-4.859-10.21-.346-15.431 1.18-1.366 2.341-2.748 3.617-4.248-.716-1.342-1.4-2.623-1.79-4.055 4.657-3.803 10.016-6.76 13.156-11.263 5.024-7.204 4.764-15.434-.507-22.802-4.708-6.582-11.433-8.68-19.312-7.477-1.133.173-2.296.143-3.446.207"/><path fill="#feae09" d="M793.482 182.947c-2.933-5.82 2.269-22.492 7.333-25.959 4.127-2.825 7.741-6.4 11.566-9.664.5-.426.916-1.41 1.343-1.395 6.115.233 6.882-6.509 11.23-8.535.429-.2.918-.601 1.066-1.02 2.026-5.714 4.042-11.433 5.96-17.185.902-2.708 1.229-5.66 2.444-8.2 2.766-5.786-.117-11.101-7.116-13.049-1.283-.357-2.211-1.99-3.304-3.428 16.273-3.527 32.547-6.66 50.164-10.05l-61.7 112.45-6.891-27.07c-4.354 4.789-8.072 8.878-12.095 13.105"/><path fill="#6f47c5" d="M213.01 340.197c.742-.452 1.485-.904 2.684-1.09 1.151 1.38 1.672 2.666 2.573 3.578 2.383 2.413 2.347 4.755-.253 6.724-3.227 2.444-3.41 5.333-1.968 8.708-2.515 2.99-5.298 5.795-7.496 9.001-8.491 12.382-7.833 20.937 2.315 33 .542 2.62 1.036 4.5 1.352 6.407.946 5.702 2.492 11.49-1.3 15.804l2.074 7.707c-13.974-4.583-27.266-10.457-37.591-21.363-9.561-10.1-10.733-22.34-3.382-34.2 8.381-13.523 20.985-22.397 34.647-30.213 4.075 2.192 5.82.916 6.345-4.063"/><path fill="#f8f8fb" d="m236.835 414.594 4.574-2.922.603.886 4.396-6.83c4.312-.646 7.675-.937 10.932-1.691 4.081-.946 4.636-3.082 2.465-6.798-.936-1.603-1.226-3.583-1.457-5.736 13.126 5.646 26.682 8.48 41.025 9.813 17.125.656 33.875 1.146 50.872 1.73.412.16.577.223.753.634.155 2.346 2.069 6.08-2.153 4.926-6.62-1.81-10.915-.11-14.626 5.507-3.015 4.565-.212 12.595 5.224 13.962 2.316.582 4.423 1.997 6.645 3.2.02.168.085.498-.365.336-4.208-.34-7.965-.519-11.763-.983-.354-.595-.667-.904-.98-1.214-.327.482-.654.963-1.427 1.494-11.142-.63-21.84-1.311-32.879-2.184-12.12-2.045-23.897-3.897-35.988-5.952-2.77-.726-5.228-1.249-7.956-1.993-1.414-.435-2.557-.649-3.99-1.121-4.827-1.86-9.366-3.462-13.905-5.064"/><path fill="#3b3c77" d="M799.277 454.896c7.037 4.266 7.687 6.978 5.258 14.594-.992 3.108-.533 6.68-.578 10.414-17.36 9.384-34.493 19.266-52.49 27.182-21.817 9.596-44.365 17.53-66.99 25.821 2.569-4.702 5.53-9.04 8.677-13.648l4.362 3.525c.59-3.436 1.038-6.05 1.776-8.869 4.2-2.037 8.226-3.661 12.005-5.735 18.032-9.897 35.997-19.915 53.986-29.89 0 0-.196.03.235-.04 2.9-1.741 5.368-3.414 7.836-5.087 8.533-6.063 17.067-12.126 25.923-18.267"/><path fill="#6848bf" d="M218.305 499.098c1.127-3.728 2.667-6.663 7.23-3.58.959.647 3.149.486 4.112-.213.752-.546.478-2.501.667-3.83.356-2.501.778-4.996 1.058-7.507.244-2.187.33-4.392.631-6.942 15.036 2.167 29.883 4.991 44.83 7.112 13.106 1.86 26.325 2.93 39.841 4.929 2.453 6.176 4.558 11.772 6.976 18.199-1.4.517-3.216.95-4.79 1.82-2.928 1.62-7.796-.714-8.99 4.392-21.348-2.81-42.695-5.62-64.804-8.515-1.48-.23-2.199-.376-3.256-.684-6.165-1.192-11.992-2.223-17.819-3.253-1.794-.57-3.59-1.14-5.686-1.928"/><path fill="#feac0c" d="M672.643 254.013c1.007 3.475 3.08 3.612 5.765 2.041 5.827-3.411 11.305-7.823 17.563-9.955 4.321-1.473 8.35-5.839 13.862-3.441.766.332 2.831-.624 3.25-1.489 1.721-3.561 4.737-3.868 8.133-4.506 7.1-1.332 13.426-4.505 18.51-9.854 1.017-1.069 2.126-2.323 3.44-2.78 3.065-1.07 4.5-2.615 5.298-6.117.902-3.957 4.99-4.828 8.9-4.213 1.455.228 2.846.867 4.67 1.38-7.946 7.743-15.947 15.85-24.723 23.006-14.934 12.179-30.338 23.783-45.591 35.568-2.489 1.922-5.217 3.534-8.6 5.327-7.592-1.97-13.704-1.384-18.953 4.159-2.754 2.908-6.852 3.529-9.94 1.18-4.736-3.603-8.102-1.774-11.892 1.226-3.824 3.027-6.43 1.904-7.47-2.927 12.484-9.5 24.968-19 37.778-28.605"/><path fill="#373d74" d="M890.94 374.6c-1.842 1.057-3.8 1.429-5.368 2.418-3.768 2.377-7.309 5.112-11.044 7.545-.911.593-2.346 1.039-3.323.77-6.962-1.92-11.483 1.597-15.767 6.63.088-1.33.516-2.703 1.177-4.745 1.01-4.85 1.785-9.031 2.56-13.212.139-1.403.277-2.806.383-5.024-.426-2.913-.821-5.013-1.216-7.112-3.057-14.31-12.581-23.89-23.911-31.89-16.901-11.937-36.15-18.801-55.712-24.878-1.385-.43-2.772-.854-4.065-2.14 1.604.076 3.242-.033 4.807.256 26.112 4.824 51.422 12.084 74.628 25.39 11.037 6.33 20.984 13.988 28.509 24.533 4.562 6.393 7.287 13.363 8.341 21.459"/><path fill="#35386e" d="m624.805 155.365 2.083 3.904c-1.276 1.5-2.436 2.882-3.617 4.248-4.513 5.221-.039 10.317.346 15.431.328 4.36 2.07 8.631 2.239 12.978.169 4.373 2.166 6.073 6.028 6.016 3.599-.053 7.191-.554 11.268-.813-10.511 15.552-23.76 28.964-38.141 41.281-5.923 5.073-12.155 9.786-18.658 14.379-2.36-1.407-5.098-2.069-6.087-3.756-1.845-3.146-4.187-4.26-7.37-4.44 3.752-3.258 7.475-6.069 10.926-9.181 13.3-11.995 25.164-25.088 30.57-42.707 4.46-14.533 1.353-22.082-11.39-28.58-4.894-4.66-2.915-10.177-1.61-15.814 6.34 7.519 14.33 9.01 23.413 7.054m2.369 49.3-.082-2.348-1.694.445c.367.686.734 1.372 1.776 1.902"/><path fill="#333666" d="M670.003 93.078c-15.456-.094-26.838-7.317-33.737-20.784-6.716-13.108-3.962-29.325 5.79-39.956 6.006-6.547 11.78-13.468 21.57-14.935a194 194 0 0 1 2.32 15.884c.132 1.257.076 2.94-.643 3.806-2.548 3.068-1.721 6.26-1.457 9.76.35 4.626-.39 9.334-.647 14.008-.054.985-.438 2.577.005 2.87 5.754 3.802 3.176 9.862 4.06 14.902.541 3.083.1 6.338.1 9.517l-.915-.039z"/><path fill="#814cc0" d="M299 401.15c-13.97-1.167-27.526-4-40.655-10.052-3.536-2.442-7.539-4.242-9.727-7.328-4.528-6.389-4.066-13.406 1.364-19.175 4.395-4.67 9.2-9.153 14.48-12.757 16.314-11.14 34.647-18.145 53.125-24.746.262-.093.624.09 2.26.372-2.238 1.303-3.676 2.049-5.02 2.937-9.408 6.223-18.862 12.381-28.15 18.78-2.425 1.671-4.484 3.974-6.42 6.236-7.802 9.108-6.477 16.6 4.248 22.994 4.25 1.685 8.16 3.243 12.304 5.503.885 6.212 1.538 11.724 2.19 17.236"/><path fill="#6551b2" d="M739.798 383.432c3.094-6.647 6.241-13.25 4.78-20.97-1.775-9.365-7.859-15.591-15.145-20.855-11.464-8.282-24.556-13.159-37.824-17.62-2.3-.773-4.574-1.62-6.86-2.432l.293-1.187c7.92 1.566 15.888 2.925 23.75 4.739 19.075 4.401 37.47 10.597 53.449 22.353 7.603 5.594 14.055 12.265 16.204 22.194-.965.61-2.025.758-2.085 1.087-1.313 7.232-6.749 9.389-12.914 11.01-4.758 1.251-9.403 2.966-14.047 4.62-4 1.425-7.025.077-9.601-2.94"/><path fill="#864dc0" d="M105.923 356.966c13.31-9.357 26.108-19.57 40.032-27.901 35.466-21.22 73.935-34.723 114.635-41.854 1.541-.27 3.145-.184 4.914.668-7.311 2.433-14.654 4.774-21.928 7.315-38.805 13.555-75.96 30.415-108.943 55.376-7.605 5.756-14.624 12.284-22.285 18.24-3.647-2.748-6.6-5.387-4.803-10.225.11-.298-1.052-1.069-1.622-1.62"/><path fill="#fda310" d="M634.54 282.757c1.366 4.692 3.97 5.815 7.795 2.788 3.79-3 7.156-4.829 11.892-1.227 3.088 2.35 7.186 1.73 9.94-1.18 5.25-5.542 11.36-6.129 18.62-4.089-15.82 10.363-32.07 20.7-48.332 31.015-1.68 1.066-3.439 2.007-5.388 3.242-6.836 3.728-13.444 7.22-20.732 10.63-2.834-1.176-4.943-2.371-7.153-3.338-4.755-2.082-10.209-3.146-12.312-8.886 15.114-9.605 30.23-19.21 45.67-28.955"/><path fill="#3a3f78" d="M691.182 18.43c21.01 8.34 29.375 34.505 16.431 52.916-4.104 5.838-9.853 10.52-15.244 15.429-1.388-1.589-2.156-3.18-3.414-4.11-5.144-3.8-5.936-9.103-5.951-14.964-.022-8.358-.143-16.734-.712-25.068-.523-7.667-.73-14.916 6.482-20.06 1.184-.846 1.624-2.736 2.408-4.143"/><path fill="#32366b" d="M530.49 129.673c-.235 1.208-1.091 2.455-1.358 3.817-.312 1.596-.714 3.737.068 4.798.577.784 3.39.856 4.514.146 5.82-3.675 9.645 1.186 13.241 3.687 1.896 1.318 1.466 6.115 1.82 9.37.054.492-1.326 1.162-2.07 1.714-1.538 1.141-3.095 2.259-4.69 3.766-19.54 2.476-38.094 8.133-56.709 14.76-1.871-.587-3.326-.937-4.724-.777-4.566.524-8.589-1.514-9.626-5.075 15.296-9.799 30.536-19.686 45.925-29.336 4.187-2.626 8.82-4.539 13.61-6.87"/><path fill="#35386e" d="M690.893 18.236c-.495 1.6-.935 3.49-2.12 4.336-7.211 5.145-7.004 12.394-6.48 20.061.568 8.334.689 16.71.71 25.068.016 5.86.808 11.164 5.952 14.965 1.258.929 2.026 2.52 3.066 4.167-6.573 3.945-13.394 6.823-21.583 6.351-1.62-1.762-2.805-3.417-3.99-5.073l.916.039c0-3.179.441-6.434-.1-9.517-.884-5.04 1.694-11.1-4.06-14.902-.443-.293-.06-1.885-.005-2.87.256-4.674.997-9.382.647-14.008-.264-3.5-1.091-6.692 1.457-9.76.72-.865.775-2.549.644-3.806-.542-5.165-1.273-10.31-1.94-15.847 8.991-3.6 17.845-2.874 26.886.796"/><path fill="#4c4591" d="M448.601 565.804c30.826-2.835 61.26-5.581 92.48-8.488 15.797-2.777 30.98-4.662 45.776-8.177 22.535-5.354 44.8-11.836 67.126-17.504-2.656 5.573-5.503 10.387-12.356 10.853-.931.064-1.706 2.418-2.554 3.711-15.848 3.536-31.601 7.593-47.562 10.512-48.443 8.858-97.358 11.638-146.95 9.993-.125-.479.158-.671.44-.863 1.07.017 2.139.034 3.6-.037"/><path fill="#f9882e" d="M588.516 311.787c2.457 5.665 7.91 6.73 12.666 8.81 2.21.968 4.32 2.163 6.818 3.423-14.069 7.474-28.41 14.923-42.92 22.028-7.628 3.736-15.552 6.87-23.69 10.033-1.06-2.06-1.61-3.963-2.52-5.674-1.85-3.484-3.894-6.866-5.858-10.29 3.632-1.796 7.264-3.592 11.156-5.646a4012 4012 0 0 1 44.348-22.684"/><path fill="#5848a1" d="M770.784 403.94c-1.936.589-4.531.41-5.177 1.446-4.354 6.992-12.39 7.047-18.74 9.815-6.344 2.767-14.005 5.048-20.575 4.075-6.959-1.03-12.09 4.435-18.434 2.672-2.625-.73-5.04-2.212-7.71-3.667 2.842-2.379 5.844-4.442 9.059-6.782 6.752-5.325 13.29-10.372 20.48-15.385 2.166.974 3.715 2.767 5.19 2.708 7.059-.277 14.492.156 21.042-1.973 7.74-2.516 16.837-4.046 20.974-12.958.243-.525 1.438-.607 2.19-.896-2.685 6.913-5.37 13.827-8.299 20.945"/><path fill="#333666" d="M572.744 244.9c3.335-.126 5.677.987 7.522 4.133.99 1.687 3.728 2.349 5.753 3.855-19.795 15.613-41.013 28.693-63.67 40.066-1.781-1.582-3.203-3.181-4.943-5.138 2.985-2.93 3.644-6.43-.432-10.223 1.128-1 2.389-1.457 3.528-2.123 17.424-10.174 34.83-20.375 52.242-30.57"/><path fill="#9649b5" d="M81.732 408.99c-2.917 8.806-6.613 17.444-8.573 26.459-3.153 14.503.645 28.353 7.01 43.015-11.76-10.617-19.175-22.063-21.161-36.654-2.726-20.024 5.23-36.765 16.742-52.558.704 1.126.657 2.262.962 3.295 1.625 5.495 3.337 10.964 5.02 16.442"/><path fill="#784dc1" d="M216.354 357.976c-1.75-3.234-1.567-6.123 1.66-8.567 2.6-1.969 2.636-4.311.253-6.724-.9-.912-1.422-2.198-2.255-3.66 14.886-6.941 29.59-14.45 45.026-19.878 16.089-5.659 32.873-9.346 49.38-13.794 1.862-.501 3.9-.35 6.032-.02-36.191 12.054-70.093 28.296-100.096 52.643M255 421c2.458.523 4.916 1.046 7.641 2.144-1.184 1.241-2.593 2.04-4.1 2.542-2.134.711-4.581.793-6.454 1.895-2.227 1.31-4.913 3.092-5.675 5.272-.685 1.958.966 4.733 1.586 7.147a91448 91448 0 0 1-32.414-8.466c-1.008-.429-1.635-.755-2.428-1.289-.797-2.556-1.429-4.904-2.24-7.916 3.793-4.315 2.247-10.102 1.301-15.804-.316-1.908-.81-3.786-1.222-6.095 8.374 4.362 16.747 9.141 25.48 14.042 4.899 1.724 9.438 3.326 14.263 5.549 1.283 4.393 2.732 3.137 4.263.98"/><path fill="#8e4db8" d="M81.961 408.72c-1.912-5.209-3.624-10.678-5.249-16.173-.305-1.033-.258-2.17-.688-3.482 7.667-12.533 18.268-22.394 29.583-31.992.886.443 2.048 1.214 1.938 1.512-1.798 4.838 1.156 7.477 4.5 10.384-6.81 8.486-13.908 16.424-20.484 24.772-3.58 4.544-6.276 9.783-9.6 14.979"/><path fill="#333666" d="M497.688 195.335c.332.355.345.796.349 1.902-3.27 3.47-6.53 6.273-10.057 9.227-.763.423-1.26.696-1.757.97l.22.641c.933-.273 1.865-.545 3.153-.886 14.102-4.906 27.716-10.188 41.657-14.384 6.552-1.973 13.723-2.38 20.634-2.526 5.693-.121 7.455 2.982 5.371 8.23-1.322 3.329-3.36 6.373-5.077 9.546-3.816 1.398-8.66 1.81-11.187 4.446-3.113 3.245-5.344 3.165-8.975 1.395 4.504-6.479 9.4-12.917 14.296-19.355l-.84-1.323c-26.315 2.716-49.715 14.025-73.151 25.675 6.705-9.612 15.817-16.603 25.364-23.558"/><path fill="#5e49a9" d="M779.104 382.532c-.773.752-1.968.834-2.211 1.359-4.137 8.912-13.234 10.442-20.974 12.958-6.55 2.129-13.983 1.696-21.042 1.973-1.475.059-3.024-1.734-4.89-2.838 2.847-4.148 6.047-8.132 9.53-12.334 2.857 2.798 5.881 4.146 9.882 2.72 4.644-1.653 9.289-3.368 14.047-4.619 6.165-1.621 11.601-3.778 12.914-11.01.06-.33 1.12-.478 2.074-.72.47 4.01.58 8.029.67 12.511"/><path fill="#3a3f78" d="M639.48 546.188c.44-1.282 1.216-3.636 2.147-3.7 6.853-.466 9.7-5.28 12.696-11.014 15.157-6.116 29.919-11.735 44.68-17.353l-1.487 8.663-4.362-3.525c-3.146 4.609-6.108 8.946-9.074 13.65-14.734 4.666-29.464 8.967-44.6 13.28"/><path fill="#333666" d="M470.619 165.969c1.374 3.471 5.397 5.509 9.963 4.985 1.398-.16 2.853.19 4.348.666-6.856 3.809-13.847 7.128-20.683 10.74-7.905 4.177-15.67 8.618-23.506 12.926-1.354.745-2.757 1.402-4.377 1.686 9.87-11.995 21.57-21.812 34.255-31.003"/><path fill="#f8f8fb" d="M224.032 501.384c5.786.672 11.613 1.703 17.74 3.34.275 1.497.251 2.386.227 3.276H242c-2.781 0-5.588-.238-8.339.052-5.042.531-8.13-1.567-9.629-6.668"/><path fill="#feae09" d="M783.632 194.054c-2.141-2.083-4.742-4.1-2.64-7.481 2.606-4.188 6.354-3.992 10.79-2.528-2.343 3.311-5.097 6.595-8.15 10.01"/><path fill="#f9f9fb" d="M858.81 374.035c-.41 4.152-1.186 8.332-2.153 12.82-1.804-2.398-3.417-5.103-5.043-7.829 2.264-1.645 4.547-3.303 7.195-4.99"/><path fill="#f7f7fa" d="M336.854 352.838c-5.236 2.241-10.666 4.189-16.475 6.141 2.34-4.881 11.572-8.45 16.475-6.14"/><path fill="#f9f9fb" d="M853.712 393.027c-1.656 3.906-3.688 7.807-5.94 11.944-3.188-4.45-.694-9.702 5.94-11.944"/><path fill="#f8f8fb" d="M444.936 565.516c-.217.517-.5.709-.84 1.154-3.467.713-6.878 1.174-10.288 1.634l-.262-1.807c3.775-.435 7.55-.87 11.39-.98"/><path fill="#784dc1" d="M212.686 340.25c-.201 4.926-1.946 6.202-5.676 3.931 1.744-1.53 3.548-2.703 5.676-3.93"/><path fill="#f9f9fb" d="M858.023 362.067c.714 1.902 1.109 4.002 1.41 6.506-5.769-.582-2.51-3.747-1.41-6.506m-233.513-4.063c-.678 1.613-1.737 3.233-3.086 5.005-.478-2.256-.81-4.745 3.086-5.005m-3.739 5.096c-.431.983-1.26 1.932-2.383 3.006.465-.93 1.226-1.986 2.383-3.006m229.274 9.298c.24.394.239.786.209 1.175 0 .011-.305-.001-.467-.003.004-.391.008-.783.258-1.172"/><path fill="#fdb50a" d="M704.684 196.558c-.103.056-.177-.153-.177-.153s.28.097.177.153"/><path fill="#7d4fb4" d="M625.004 343.997q-.215-.082-.437-.156c.154-.069.307-.138.44-.017-.02.19-.008.177-.003.173"/><path fill="#854eb6" d="M521.283 409.15c1.665-.334 3.33-.669 5.359-.993.031 4.966-3.127 7.878-7.297 9.518-5.028 1.978-9.149 4.576-12.787 8.874-3.565 4.211-7.675 8.47-14.35 8.784-3.322.157-6.517 2.654-9.815 3.977-.869.348-2.064.64-2.845.317-3.94-1.623-5.88.555-7.506 3.965-10.144 1.716-20.243 3.118-30.355 4.423-3.59.464-7.212.69-11.256 1.1-6.459.395-12.48.716-18.922.605 1.786-1.529 3.907-2.878 6.221-3.648 2.276-.758 5.16-.277 7.058-1.477 5.918-3.74 11.594-7.889 17.167-12.138 3.213-2.45 6.046-5.4 9.456-8.256 6.434-1.154 12.507-1.972 18.485-3.24 13.727-2.915 27.407-6.048 41.106-9.093 1.848-.382 3.696-.764 6.194-1.378 1.796-.6 2.942-.97 4.087-1.34"/><path fill="#5848a1" d="M542.578 474.883c-.61.898-1.57 1.89-2.696 2.627-1.221.8-3.412 1.067-3.776 2.074-2.56 7.08-9.38 6.017-14.565 8.202-5.706 2.404-10.93 6.029-16.722 8.134-6.666 2.422-12.721 5.625-18.837 9.18-4.235 2.463-10.222 1.75-15.306 2.96-6.075 1.448-12.049 3.35-18 5.263-1.072.344-1.824 1.689-2.826 2.99a728 728 0 0 1-44.355 1.089c1.015-1.117 2.415-2.078 3.936-2.342 4.525-.785 9.222-.833 13.624-2.015 7.909-2.123 15.548-5.306 23.505-7.172 4.531-1.062 7.47-3.593 10.672-6.476 4.402-3.966 7.85-9.526 14.864-9.758.674-.022 1.275-2.28 1.91-3.5 1.049-.153 2.097-.307 3.596-.023 3.642 4.241 13.416 2.451 16.277-2.46 16.092-2.931 32.184-5.861 48.699-8.773"/><path fill="#6349b0" d="M376.005 516.91c-9.04-.286-18.082-.572-27.511-1.306 1.767-1.959 4.995-3.01 5.877-5.066 2.695-6.28 4.487-12.948 6.63-19.466 9.609-.024 19.22.074 28.825-.103 13.417-.247 26.83-.699 40.649-.646-1.823 1.622-5.262 2.302-6.054 4.128-2.704 6.234-9.812 6.128-13.759 10.477-1.073 1.182-4.09.677-6.224.8-3.042.176-6.353-.51-9.085.468-5.727 2.05-11.195 4.854-16.661 7.566-1.137.564-1.804 2.074-2.687 3.147"/><path fill="#5e49a9" d="M376.45 516.992c.438-1.156 1.105-2.666 2.242-3.23 5.466-2.712 10.934-5.517 16.66-7.566 2.733-.978 6.044-.292 9.086-.468 2.134-.123 5.151.382 6.224-.8 3.947-4.349 11.055-4.243 13.759-10.477.792-1.826 4.23-2.506 6.518-4.064 14.112-1.685 28.162-3.017 42.64-4.298-.208 1.27-.809 3.528-1.483 3.55-7.014.232-10.462 5.792-14.864 9.758-3.201 2.883-6.141 5.414-10.672 6.476-7.957 1.866-15.596 5.049-23.505 7.172-4.402 1.182-9.099 1.23-13.624 2.015-1.52.264-2.92 1.225-4.397 2.262-9.394.181-18.766-.033-28.584-.33"/><path fill="#6548b8" d="M360.556 490.986c-1.698 6.604-3.49 13.272-6.185 19.552-.882 2.057-4.11 3.107-6.316 4.973-12.53-.295-25.007-.946-37.836-1.815.845-5.324 5.713-2.99 8.64-4.61 1.575-.87 3.39-1.303 4.791-1.82-2.418-6.427-4.523-12.023-6.616-18.011 3.029-.336 6.046-.28 9.901-.162 1.911.074 2.983.086 4.056.098 2.396.257 4.792.515 7.596.708 7.446.29 14.485.645 21.969 1.087"/><path fill="#5e49a9" d="M493.439 483.639c-2.42 4.928-12.195 6.718-15.44 2.516 4.964-1.11 9.982-1.821 15.44-2.516"/><path fill="#5848a1" d="M697.674 419.082c.346 1.56.357 3.173.367 4.786-1.89-.243-3.78-.485-6.01-.877 1.542-1.385 3.425-2.62 5.643-3.909"/><path fill="#f5f4f9" d="M699.292 513.915c-15.05 5.824-29.812 11.443-44.914 17.223-22.72 6.165-44.986 12.647-67.52 18-14.797 3.516-29.98 5.401-45.423 7.981.337-2.867 1.532-5.661 1.785-8.538.487-5.528-.626-6.185-6.277-6.69-2.815-.253-5.733-1.28-8.228-2.643-2.604-1.423-2.548-3.367.6-4.447.936-.32 2.072-.317 2.825-.863 1.708-1.241 4.22-2.526 4.566-4.178.367-1.751-1.392-3.949-2.364-6.29 1.06-2.62 2.436-6.137 3.903-9.615.939-2.227 5.769-2.54 7.953-.631 1.46 1.275 3.398 3.738 4.453 3.423 3.47-1.035 6.7-2.978 9.892-4.801 2.143-1.225 4.063-2.839 6.593-4.642l1.434 5.57c5.348-.773 10.986 1.392 15.694-3.228 1.291-1.267 4.012-1.102 6.09-1.538 2.41-.505 5.176-.36 7.19-1.53 5.9-3.426 12.286-3.823 18.82-4.672 7.5-.974 14.81-3.424 22.806-5.52 2.013-.62 3.421-.953 4.83-1.287 3.707-.333 7.414-.666 11.56-1 9.479.956 17.91-.628 26.418-4.166 5.836-2.426 12.67-2.378 18.993-3.743 2.53-.547 4.872-1.947 7.323-2.899 1.2-.466 2.587-1.349 3.663-1.092 7.04 1.677 12.942-1.87 19.382-3.385 7.363-1.734 15.374-2.16 22.869-1.242 3.445.422 6.747 1.415 10.673.728-17.587 10.065-35.552 20.083-53.584 29.98-3.779 2.074-7.804 3.698-12.005 5.735m-201.117 6.829c-2.856-.076-5.343-.292-7.83-.507l.042-1.614c2.124-.517 4.234-1.374 6.374-1.459 2.265-.089 4.302.687 1.414 3.58"/><path fill="#f9f9fb" d="M633.96 485.987c1.09-.834 2.251-1.28 3.728-1.744.531 1.045.746 2.108 1.243 4.557-2.255-1.116-3.579-1.771-4.972-2.813m-1.777 9.987c-.49-.71-.633-1.41-.776-2.11l2.977.274c-.618.616-1.237 1.231-2.201 1.836m11.579-1.246c-1.17.605-2.578.938-4.374 1.271a15.9 15.9 0 0 1 4.374-1.27"/><path fill="#fdfdfd" d="M242.364 507.993c-.34-.883-.317-1.772-.254-3.107.757-.3 1.475-.153 2.54.115-.41 1.077-1.166 2.031-2.286 2.992"/><path fill="#f5f4f9" d="M500.003 513.953c.703-.481 1.536-.641 2.687-.743-.033.846-.385 1.636-.738 2.425-.606-.454-1.213-.907-1.949-1.682m13.754-2.251c.248-.145.706.037.93.142.388.63.553 1.156.718 1.682-.766-.26-1.531-.521-2.352-1.098.116-.405.286-.493.704-.726m-8.554 6.507c.6.362.9.786 1.201 1.211l-1.334.343c-.055-.497-.11-.994.133-1.554m-23.157-2.707c.395-.35.84-.424 1.62-.438.031.552-.273 1.044-.578 1.536-.33-.274-.661-.548-1.042-1.098"/><path fill="#9649b5" d="M350.987 403.332c-.165-.063-.33-.126-.69-.68-.23-5.433-.266-10.375-.303-15.318 41.451-1.732 81.456-10.902 120.784-23.522 5.846-1.876 11.637-3.922 17.875-5.586 2.741 5.449 5.061 10.595 7.093 15.973-24.416 6.892-48.272 14.906-72.75 19.827-23.67 4.759-47.98 6.333-72.01 9.306"/><path fill="#ca637d" d="M496.035 373.967c-2.32-5.146-4.64-10.292-6.999-15.816 14.393-6.26 28.824-12.14 43.615-18.027a109 109 0 0 1 6.22 10.283c.909 1.711 1.459 3.614 2.19 5.787-6.71 3.225-13.438 6.094-20.818 9.226a6832 6832 0 0 1-24.208 8.547"/><path fill="#8948bc" d="M349.558 387.265c.473 5.012.51 9.954.493 15.291-16.803-.094-33.553-.584-50.678-1.24-1.026-5.678-1.679-11.19-2.302-17.15 11.104.98 22.15 2.767 33.267 3.694 6.2.517 12.519-.396 19.22-.595"/><path fill="#8e4db8" d="M451.005 424.332c-3.004 2.725-5.837 5.675-9.05 8.125-5.573 4.25-11.25 8.398-17.167 12.138-1.898 1.2-4.781.72-7.058 1.477-2.314.77-4.435 2.12-6.682 3.588-11.782.936-23.518 1.633-35.264 2.017-9.279.303-18.57.222-28.257-.088 1.767-1.807 3.817-3.463 6.13-4.566 3.656-1.743 4.644-4.95 1.623-7.631-2.952-2.619-4.319-7.206-9.107-7.62 0 0-.065-.33.37-.408 35.313.614 69.959-2.141 104.462-7.032"/><path fill="#8948bc" d="M345.723 431.611c5.238.575 6.605 5.162 9.557 7.78 3.021 2.682 2.033 5.889-1.623 7.632-2.313 1.103-4.363 2.759-6.595 4.5-15.125-.732-30.186-1.797-45.668-3.367-2.943-5.804 1.873-7.937 3.914-10.361l-6.291-8.879c10.697.68 21.394 1.361 32.864 2.082 1.222 0 1.671-.042 2.12-.084 3.757.178 7.514.357 11.722.697"/><path fill="#814cc0" d="M298.674 428.724c2.341 3.013 4.34 5.833 6.634 9.07-2.041 2.425-6.857 4.558-4.31 10.184-4.932-.133-9.933-.315-14.835-1.108-12.52-2.023-24.997-4.319-37.828-6.688-.957-2.596-2.608-5.37-1.923-7.329.762-2.18 3.448-3.962 5.675-5.272 1.873-1.102 4.32-1.184 6.454-1.895 1.507-.502 2.916-1.3 4.414-2.339 11.822 1.48 23.6 3.332 35.72 5.377"/><path fill="#f4f3f9" d="M330.967 488.84c-1.049.339-2.12.327-3.581.202.203-.983.794-1.853 1.386-2.723.723.723 1.447 1.446 2.195 2.52m-10.569-6.884c.394-.24.786-.239 1.175-.209.011.001-.001.305-.003.467-.391-.004-.783-.008-1.172-.258"/><path fill="#fafafb" d="M488.245 206.314c3.261-2.804 6.522-5.607 9.817-8.747 1.772-1.221 3.62-1.942 5.234-3.013 22.992-15.251 47.326-27.578 74.905-31.63 7.767-1.141 15.971.699 24.388 1.187 13.156 6.512 16.262 14.06 11.803 28.594-5.406 17.62-17.27 30.712-30.57 42.707-3.451 3.112-7.174 5.923-10.925 9.18-17.564 10.503-34.971 20.704-52.395 30.878-1.139.666-2.4 1.122-3.868 1.93-16.348 7.43-32.145 15.369-48.601 21.553-15.026 5.646-30.761 9.405-46.199 13.945-1.073.315-2.27.209-3.528.308 12.199-6.532 24.429-12.606 36.197-19.471 34.046-19.862 64.603-44.03 89.86-74.521 2.75-3.322 5.09-6.984 7.72-10.823 1.815-3.509 3.853-6.553 5.175-9.883 2.084-5.247.322-8.35-5.371-8.23-6.911.147-14.082.554-20.634 2.527-13.941 4.196-27.555 9.478-41.899 14.14-.767-.327-.938-.48-1.109-.631"/><path fill="#f5f4f9" d="M773.003 473.015c-2.117 1.821-4.585 3.494-7.386 5.245.646-5.337 2.14-6.447 7.386-5.245M451.41 424.201c-34.908 5.022-69.554 7.777-104.887 6.996-2.657-1.125-4.764-2.54-7.08-3.122-5.436-1.367-8.239-9.397-5.224-13.962 3.71-5.617 8.006-7.316 14.626-5.507 4.222 1.153 2.308-2.58 2.153-4.926 24.018-3.321 48.328-4.895 71.998-9.654 24.478-4.921 48.334-12.935 72.75-19.827 8.14-2.993 15.992-5.754 24.19-8.564 4.443.778 8.528 1.682 12.646 2.402 2.382.417 5.763-1.303 6.313 2.81.858 6.41-.845 9.546-5.196 10.156-.642.09-1.287.162-1.18 1.306l-7.349 7.128c2.157.103 3.346-.022 4.43.257 1.466.378 2.852 1.067 4.273 1.623-1.281 1.383-2.852 4.124-3.795 3.923-5.023-1.073-7.92 2.442-11.47 4.52-.908.532-2.322 1.745-2.175 2.28.842 3.058-.865 3.404-3.146 4.305-1.196.472-1.55 3.076-2.285 5.12-13.699 3.448-27.38 6.581-41.106 9.495-5.978 1.27-12.05 2.087-18.485 3.241m69.526-15.205c-.8.524-1.945.894-3.46 1.285-.267-2.99 1.4-2.272 3.46-1.285"/><path fill="#fafafb" d="M625.098 155.214c-9.375 2.108-17.367.616-23.662-7.335-7.485-12.693-2.068-26.564 13.185-33.94 1.518-.124 2.681-.094 3.814-.267 7.88-1.203 14.604.895 19.312 7.477 5.27 7.368 5.531 15.598.507 22.802-3.14 4.503-8.5 7.46-13.156 11.263"/><path fill="#814cc0" d="M254.73 420.78c-1.26 2.378-2.71 3.634-3.704-.5 1.147-.15 2.29.064 3.704.5"/><path fill="#f5f4f9" d="M333.96 430.628c-.408.328-.857.37-1.633.32-.001-.571.326-1.052.653-1.534.313.31.626.62.98 1.214"/><path fill="#373d74" d="M626.836 204.742c-.704-.608-1.071-1.294-1.438-1.98l1.694-.445c.027.782.054 1.565-.256 2.425"/><path fill="#fafafb" d="M489 207.013c-.692.517-1.624.79-2.557 1.062l-.22-.641c.497-.274.994-.547 1.757-.97.436.002.607.154 1.02.55"/></svg>