<svg xmlns="http://www.w3.org/2000/svg" xmlns:xlink="http://www.w3.org/1999/xlink" id="Layer_1" data-name="Layer 1" viewBox="0 0 419.23 343.05"><defs><linearGradient id="New_Gradient_Swatch_copy_7" x1="129.1" x2="355.62" y1="110.99" y2="110.99" data-name="New Gradient Swatch copy 7" gradientUnits="userSpaceOnUse"><stop offset="0" stop-color="#ffa628"/><stop offset=".36" stop-color="#fea227"/><stop offset=".69" stop-color="#fa9724"/><stop offset="1" stop-color="#f68520"/></linearGradient><linearGradient id="New_Gradient_Swatch_copy_9" x1="133.58" x2="267.81" y1="237.04" y2="102.81" data-name="New Gradient Swatch copy 9" gradientUnits="userSpaceOnUse"><stop offset="0" stop-color="#ffa628"/><stop offset=".06" stop-color="#d4803b"/><stop offset=".18" stop-color="#853b60"/><stop offset=".27" stop-color="#531077"/><stop offset=".31" stop-color="#400080"/><stop offset=".55" stop-color="#182551"/><stop offset=".56" stop-color="#172653"/><stop offset=".85" stop-color="#114377"/><stop offset="1" stop-color="#0f4f85"/></linearGradient><linearGradient id="New_Gradient_Swatch_copy_8" x1="81.99" x2="335.12" y1="157.86" y2="157.86" data-name="New Gradient Swatch copy 8" gradientUnits="userSpaceOnUse"><stop offset="0" stop-color="#f68520"/><stop offset=".04" stop-color="#fa9524"/><stop offset=".09" stop-color="#fda127"/><stop offset=".15" stop-color="#ffa628"/><stop offset=".19" stop-color="#db8738"/><stop offset=".29" stop-color="#994d56"/><stop offset=".37" stop-color="#68236d"/><stop offset=".43" stop-color="#4b097a"/><stop offset=".47" stop-color="#400080"/><stop offset=".63" stop-color="#400080"/><stop offset=".89" stop-color="#182551"/><stop offset="1" stop-color="#182551"/></linearGradient><linearGradient id="New_Gradient_Swatch_copy_10" x1="192.6" x2="358.58" y1="179.21" y2="179.21" data-name="New Gradient Swatch copy 10" gradientUnits="userSpaceOnUse"><stop offset="0" stop-color="#182551"/><stop offset=".32" stop-color="#123f71"/><stop offset=".55" stop-color="#0f4f85"/><stop offset=".69" stop-color="#213183"/><stop offset=".89" stop-color="#370d80"/><stop offset="1" stop-color="#400080"/></linearGradient><linearGradient id="New_Gradient_Swatch_copy_2" x1="59.56" x2="140.95" y1="158.05" y2="158.05" data-name="New Gradient Swatch copy 2" gradientUnits="userSpaceOnUse"><stop offset="0" stop-color="#182551"/><stop offset=".28" stop-color="#172855"/><stop offset=".56" stop-color="#153261"/><stop offset=".83" stop-color="#114275"/><stop offset="1" stop-color="#0f4f85"/></linearGradient><linearGradient xlink:href="#New_Gradient_Swatch_copy_2" id="New_Gradient_Swatch_copy_2-2" x1="144.81" x2="298.68" y1="93.7" y2="93.7" data-name="New Gradient Swatch copy 2"/><style>.cls-7{fill:#0f4f85}</style></defs><path d="M163.41 166.07c-9.68.08-26.17-1.25-34.32-6.5 13.56 2.66 26.78 3.06 40.77 1.35 35.32-4.3 69.3-16.44 99.17-35.73 14.06-9.08 26.7-19.47 37.76-32.25l-12.86 2.64c10.11-8.19 19.8-15.7 29.11-24.77l-7.99-7.39 40.56-7.51-22.76 39.95-1.57-9.84c-11.4 12.94-23.47 24.63-37.25 34.84-36.92 27.35-84.54 44.81-130.63 45.2Z" style="fill:url(#New_Gradient_Swatch_copy_7)"/><path d="M83.78 186.94c-5.11-6.79-2.28-15.39 4.59-20.77-1.35 5.51-.69 10.33 3.03 14.23 15.18 15.89 54.94 18.78 77.33 18.48 37.83-.51 77.85-6.05 112.6-20.95 9.58-4.1 30.32-15.9 25.62-25.19-1.42-2.81-3.84-5.29-6.73-6.59l-13.97-6.28c10.47 1.64 27.91 6.36 32.69 14.69 2.04 3.55 1.44 8.04-.31 11.65-5.33 10.99-20.72 19.42-32.35 24.15-40.26 16.41-84.3 21.14-127.72 18.55-14.1-.84-27.6-2.18-41.3-5.37-11.22-2.61-26.84-7.77-33.49-16.61Z" style="fill:url(#New_Gradient_Swatch_copy_9)"/><path d="M273.02 154.47c2.32 1.53 2.29 4.87.69 6.75-6.95 8.22-22.12 13.42-33.09 16.47-18.46 5.14-37.05 7.4-56.24 8.2-16.52.69-32.66-.28-48.89-3.27-10.66-1.96-28.4-6.87-33.44-15.56-10.29-17.73 41.55-36.24 58.42-37.45-12.23 5-24.22 9.01-35.04 16.34-4.12 2.79-7.8 5.64-10.56 9.67-2.11 3.48-1.98 7.55.95 10.49 8.44 8.47 27 11.32 39.65 11.84 28.9 1.19 57.63-2.66 85.08-11.52 7.3-2.35 13.82-5.23 20.12-9.19 2.16-1.36 3.43-3.09 4.36-5.6 2.69.43 5.6 1.23 7.99 2.81Z" style="fill:url(#New_Gradient_Swatch_copy_8)"/><path d="m192.6 226.34 7.38-.59c37.95-2.7 78.47-11.72 111.65-30.88 12.41-7.17 27.37-17.57 33.59-30.21 3.45-7.56 1.79-15.35-4.77-20.54-7.1-6.16-16.02-9.19-24.91-12.28 10.21.95 19.59 4.25 28.54 8.7 3.59 2.18 6.88 4.4 9.67 7.42 11.42 12.37.54 28.06-11.36 37.77-9.08 7.4-18.99 12.84-29.76 17.67-36.35 16.29-80.6 24.68-120.04 22.95Z" style="fill:url(#New_Gradient_Swatch_copy_10)"/><path d="M96.02 143.15c-16.59 10.31-37.95 27.41-32.68 48.64-3.96-5.47-4.53-12.31-2.97-18.73 6.72-27.61 52.88-46.45 80.59-48.76-15.52 4.5-30.81 10.06-44.94 18.84Z" style="fill:url(#New_Gradient_Swatch_copy_2)"/><path d="M49.75 287.59c0 1.46-.7 2.2-2.09 2.2H21.72v-38.33c0-.64.36-1.14 1.09-1.51.61-.31 1.29-.47 2.06-.47q2.73 0 2.73 1.98v33.58h20.06c1.39 0 2.09.85 2.09 2.55m31.77-12.32c0 .05-.01.15-.04.29s-.05.23-.05.29l-23.33.88q.3 3.345 3.18 5.13 2.58 1.59 6.45 1.59c4 0 6.68-1.2 8.03-3.6.5-.59 1.46-.88 2.88-.88 1.88 0 2.82.36 2.82 1.07 0 .07-.02.16-.06.25-1.72 4.01-6.28 6.01-13.7 6.01-4.28 0-7.78-.77-10.48-2.31-3.23-1.83-4.85-4.57-4.85-8.22s1.56-6.43 4.67-8.36c2.69-1.67 6.14-2.5 10.36-2.5s7.82.93 10.54 2.78c1.27.88 2.17 1.86 2.7 2.95.34.75.64 2.29.88 4.62ZM75.97 273c-.2-1.4-.79-2.47-1.76-3.23-1.74-1.34-3.99-2.01-6.76-2.01q-3.45 0-5.94 1.38c-1.94 1.07-3.01 2.57-3.21 4.52zm26.11-9.47c0 1.38-.47 2.07-1.42 2.07h-5.18v23.06q0 1.62-2.61 1.62-2.82 0-2.82-1.62V265.6h-2.18c-.89 0-1.33-.65-1.33-1.96 0-1.46.44-2.18 1.33-2.18h2.18v-8.04q0-1.62 2.67-1.65c1.84-.02 2.76.46 2.76 1.43v8.26h5.18c.95 0 1.42.69 1.42 2.07m9.26-11.66c-.02.05-.05.23-.09.52l-.33 2.2c-.36 2.38-.88 4.05-1.55 5.02-.87 1.26-2.22 2.24-4.06 2.94-1.05-.11-1.56-.59-1.51-1.43q0-.24.15-.69c2.18-.84 3.44-2.67 3.79-5.49-.91-.02-1.66-.33-2.24-.93-.59-.6-.85-1.32-.79-2.14.06-.84.43-1.56 1.12-2.16.69-.59 1.5-.89 2.42-.89s1.69.3 2.29.89c.6.6.86 1.31.8 2.16m32.04 29.35c0 3.7-2.06 6.37-6.18 8.02-2.02.81-4.48 1.21-7.39 1.21-6.2 0-10.35-1.9-12.45-5.71-.1-.18-.15-.37-.15-.55 0-.62.37-1.19 1.12-1.7.69-.49 1.39-.74 2.09-.74.65 0 1.16.24 1.55.71q1.845 3.93 7.83 3.93c5.34 0 8.01-1.55 8.01-4.64 0-1.12-.54-1.99-1.61-2.64-.73-.44-2.6-1-5.6-1.67-3.43-.79-5.61-1.33-6.52-1.64-4.34-1.52-6.51-3.99-6.51-7.42 0-2.89 1.34-5.08 4.03-6.56 2.22-1.23 5.03-1.84 8.42-1.84 5.31 0 8.94 1.22 10.88 3.65l.06.05q.24.3.24.63c0 .6-.43 1.13-1.3 1.59-.75.4-1.48.6-2.21.6-.67 0-1.17-.19-1.51-.58q-1.755-1.89-5.76-1.89c-5.05 0-7.58 1.25-7.58 3.76 0 1.39.92 2.41 2.76 3.05.44.17 2.05.59 4.82 1.26 3.59.9 5.71 1.45 6.33 1.65 4.42 1.48 6.64 3.97 6.64 7.47Zm61.96 7.47c0 1.21-.96 1.81-2.88 1.81s-2.79-.6-2.79-1.81v-30.12l-13 23.86c-.73.97-1.62 1.46-2.67 1.46s-1.93-.48-2.64-1.46l-12.76-24.44v30.7c0 1.12-.96 1.67-2.88 1.67s-2.79-.56-2.79-1.67v-37.5c0-1.15.97-1.73 2.91-1.73 2.95 0 5.14 1.09 6.58 3.27l11.99 22.98 11.93-22.51c1.25-2.38 3.31-3.56 6.16-3.56q2.82 0 2.82 1.56v37.5Zm35.29-13.54c0 4.72-2.42 7.91-7.27 9.57-2.38.82-4.98 1.23-7.79 1.23-4.28 0-7.75-.77-10.39-2.3-3.13-1.81-4.7-4.54-4.7-8.2s1.66-6.52 4.97-8.31c2.77-1.48 6.14-2.22 10.12-2.22s7.55.75 10.24 2.25c3.21 1.81 4.82 4.47 4.82 7.98m-5.58.17c0-2.43-.91-4.32-2.74-5.67q-2.58-1.89-6.75-1.89c-4.17 0-5.13.63-6.81 1.89-1.8 1.35-2.71 3.29-2.71 5.81s.9 4.44 2.71 5.81q2.52 1.89 6.81 1.89c4.29 0 5.16-.65 6.84-1.95 1.76-1.39 2.64-3.35 2.64-5.89Zm33.76-14.41q0 .135-.09.3l-11.97 27.76c-.38.88-1.15 1.32-2.3 1.32q-2.205 0-2.79-1.32l-11.91-27.59a.6.6 0 0 1-.06-.25c0-.46.35-.81 1.06-1.07.59-.22 1.16-.33 1.73-.33 1.43 0 2.45.55 3.03 1.65l8.82 21.2 8.79-21.36q.57-1.38 3.15-1.38c2.58 0 2.54.36 2.54 1.07m31.68 14.36c0 .05-.01.15-.04.29s-.05.23-.05.29l-23.33.88q.3 3.345 3.18 5.13 2.58 1.59 6.45 1.59c4 0 6.68-1.2 8.03-3.6.5-.59 1.46-.88 2.88-.88 1.88 0 2.82.36 2.82 1.07 0 .07-.02.16-.06.25-1.72 4.01-6.28 6.01-13.7 6.01-4.28 0-7.78-.77-10.48-2.31-3.23-1.83-4.85-4.57-4.85-8.22s1.56-6.43 4.67-8.36c2.69-1.67 6.14-2.5 10.36-2.5s7.82.93 10.54 2.78c1.27.88 2.17 1.86 2.7 2.95.34.75.64 2.29.88 4.62Zm-5.55-2.27c-.2-1.4-.79-2.47-1.76-3.23-1.74-1.34-3.99-2.01-6.76-2.01q-3.45 0-5.94 1.38c-1.94 1.07-3.01 2.57-3.21 4.52zm58.99-.2c0 3.7-.38 6.6-1.15 8.7-2.18 5.99-7.59 8.98-16.21 8.98s-13.55-2.54-15.88-7.61c-1.13-2.47-1.7-5.83-1.7-10.08v-21.33c-.2-1.41.71-2.11 2.73-2.11.79 0 1.48.17 2.09.52.71.4 1.06.93 1.06 1.59v21.31c0 2.93.21 5.1.64 6.51 1.29 4.27 4.81 6.4 10.54 6.4 4.77 0 8.03-1.1 9.79-3.29 1.47-1.85 2.21-5.05 2.21-9.61v-21.31c0-.64.36-1.14 1.09-1.51.61-.31 1.28-.47 2.03-.47q2.76 0 2.76 1.98zm42.5 5.62c0 2.32-.73 4.42-2.18 6.29q-2.055 2.685-5.67 4.17c-2.57 1.06-5.42 1.59-8.58 1.59-7.9 0-13.39-2.13-16.48-6.4-1.11-1.54-1.76-3.12-1.94-4.75-.06-.53.34-.97 1.21-1.32.55-.22 1.18-.33 1.91-.33 1.47 0 2.28.4 2.42 1.21.46 2.55 2.39 4.43 5.79 5.62 2.28.81 4.55 1.21 6.82 1.21 4.71 0 7.97-1.14 9.79-3.41.83-1.04 1.24-2.19 1.24-3.43 0-2.58-1.74-4.48-5.21-5.69-1.39-.48-4.17-1.15-8.33-2.03-3.62-.75-6.33-1.57-8.15-2.45-4.2-2.01-6.3-4.94-6.3-8.76 0-2.2.69-4.17 2.06-5.91 1.33-1.69 3.14-2.96 5.42-3.82 2.44-.92 5.16-1.37 8.15-1.37 6.93 0 11.77 1.89 14.51 5.68 1.11 1.54 1.68 3.13 1.7 4.78 0 .48-.43.85-1.3 1.13-.69.22-1.34.33-1.97.33-1.39 0-2.18-.36-2.36-1.07-1.03-4.1-4.47-6.15-10.33-6.15-2.69 0-4.92.39-6.7 1.18-2.34 1.04-3.52 2.66-3.52 4.86 0 2.05 1.27 3.62 3.82 4.69 1.03.44 3.29 1.02 6.79 1.73 4.75.97 8.02 1.83 9.82 2.58 5.05 2.1 7.58 5.38 7.58 9.83Z" style="fill:#182551"/><path d="m35.84 318.66 5.55-13.4h2.32l5.53 13.4h-2.21l-1.13-2.92h-6.72l-1.13 2.92zm3.98-4.54h5.44l-2.72-6.95zm11.09 4.54v-13.38h4.02q1.77 0 3.24.33c.98.22 1.83.58 2.55 1.09s1.28 1.19 1.68 2.05.6 1.93.6 3.2-.2 2.35-.6 3.21-.96 1.55-1.68 2.06-1.57.88-2.55 1.1q-1.47.33-3.24.33h-4.02Zm2.08-1.58h1.9c.77 0 1.51-.06 2.22-.17s1.36-.34 1.92-.68c.57-.34 1.02-.85 1.35-1.54s.5-1.6.5-2.73-.17-2.04-.5-2.71-.78-1.18-1.35-1.52-1.21-.57-1.92-.68-1.46-.17-2.22-.17h-1.9v10.21Zm10.28 1.58 5.55-13.4h2.32l5.53 13.4h-2.21l-1.13-2.92h-6.72l-1.13 2.92zm3.98-4.54h5.44l-2.72-6.95zm11.09 4.52v-13.36h4.62c1.21 0 2.27.11 3.19.32s1.64.61 2.17 1.19c.52.58.78 1.42.78 2.53s-.26 1.93-.78 2.51-1.25.97-2.17 1.18-1.99.31-3.19.31h-2.54v5.31h-2.08Zm2.08-6.93h2.72c.72 0 1.37-.05 1.94-.14s1.04-.31 1.38-.65c.35-.34.52-.87.52-1.59s-.17-1.28-.52-1.62c-.35-.35-.81-.57-1.38-.68s-1.22-.16-1.94-.16h-2.72v4.85Zm14.43 6.95V306.9h-4.91v-1.62h11.89v1.62h-4.91v11.76h-2.08Zm8.45 0v-1.48h2.08v-10.41h-2.08v-1.48h6.23v1.48h-2.08v10.41h2.08v1.48zm12.75 0-5.06-13.38h2.28l4 11.18 4.02-11.18h2.28l-5.08 13.38h-2.43Zm9.2 0v-13.38h10.01v1.62h-7.94v4.07h5.86v1.62h-5.86v4.45h7.94v1.62zm23.14.24c-.81 0-1.6-.11-2.36-.34-.77-.23-1.44-.57-2.02-1.04a4 4 0 0 1-1.27-1.78l1.92-.52c.18.48.46.88.86 1.19q.6.465 1.38.69a5.7 5.7 0 0 0 3.26-.04c.53-.17.96-.44 1.29-.79s.5-.8.5-1.33-.22-.98-.66-1.3-1.21-.61-2.3-.86l-1.88-.38c-.68-.16-1.34-.37-2-.64s-1.19-.65-1.61-1.14q-.63-.735-.63-1.98c0-.76.26-1.41.78-1.94s1.2-.94 2.03-1.22a8.1 8.1 0 0 1 4.64-.15c.67.18 1.27.45 1.81.82s.96.84 1.27 1.41l-1.9.5c-.28-.47-.73-.82-1.36-1.06s-1.28-.36-1.96-.36c-.53 0-1.04.08-1.52.23-.49.15-.88.38-1.19.69s-.46.69-.46 1.16c0 .44.14.79.43 1.06s.67.48 1.15.63 1.01.29 1.58.41l1.61.32c.75.16 1.46.38 2.12.66s1.2.67 1.61 1.18.62 1.19.62 2.04c0 .61-.16 1.17-.49 1.65-.32.49-.76.9-1.3 1.22-.55.33-1.16.58-1.85.75s-1.39.26-2.11.26Zm8.09-.26v-13.36h4.62c1.21 0 2.27.11 3.19.32s1.64.61 2.17 1.19c.52.58.79 1.42.79 2.53s-.26 1.93-.79 2.51c-.52.58-1.24.97-2.17 1.18-.92.21-1.99.31-3.19.31h-2.54v5.31h-2.08Zm2.08-6.93h2.72c.72 0 1.37-.05 1.94-.14s1.04-.31 1.38-.65c.35-.34.52-.87.52-1.59s-.17-1.28-.52-1.62c-.35-.35-.81-.57-1.38-.68s-1.22-.16-1.94-.16h-2.72v4.85Zm17.32 7.19c-1.42 0-2.64-.3-3.67-.89s-1.83-1.42-2.4-2.46-.85-2.25-.85-3.59.28-2.54.85-3.58a6.2 6.2 0 0 1 2.4-2.44c1.03-.59 2.25-.89 3.67-.89s2.66.3 3.69.89 1.83 1.41 2.4 2.44.85 2.23.85 3.58-.28 2.55-.85 3.59a6.2 6.2 0 0 1-2.4 2.46c-1.03.59-2.26.89-3.69.89m0-1.58c.9 0 1.71-.21 2.44-.62s1.31-1.02 1.74-1.81.64-1.77.64-2.93-.21-2.12-.64-2.91-1.01-1.4-1.74-1.8-1.54-.61-2.44-.61-1.69.2-2.42.61q-1.095.615-1.74 1.8c-.43.79-.64 1.77-.64 2.91s.21 2.14.64 2.93 1.01 1.4 1.74 1.81 1.54.62 2.42.62m9.51 1.34v-13.38h4.69c1.21 0 2.27.1 3.19.29s1.64.57 2.17 1.12c.52.55.78 1.37.78 2.43 0 .6-.1 1.16-.31 1.68s-.6.96-1.18 1.32-1.45.61-2.6.76l4.58 5.77h-2.54l-4.49-5.63h-2.21v5.63h-2.08Zm2.08-7.21h2.76c.72 0 1.37-.05 1.96-.14.58-.09 1.05-.3 1.39-.63.35-.33.52-.83.52-1.51s-.17-1.2-.52-1.52-.81-.53-1.39-.63-1.23-.15-1.96-.15h-2.76v4.59Zm14.81 7.21V306.9h-4.91v-1.62h11.89v1.62h-4.91v11.76h-2.08Zm13.52.24c-.81 0-1.6-.11-2.37-.34s-1.44-.57-2.02-1.04a4 4 0 0 1-1.27-1.78l1.92-.52c.18.48.46.88.86 1.19q.6.465 1.38.69a5.7 5.7 0 0 0 3.26-.04c.53-.17.96-.44 1.29-.79s.5-.8.5-1.33-.22-.98-.66-1.3-1.21-.61-2.3-.86l-1.88-.38c-.68-.16-1.34-.37-2-.64s-1.19-.65-1.61-1.14q-.63-.735-.63-1.98c0-.76.26-1.41.79-1.94.52-.53 1.2-.94 2.03-1.22a8.1 8.1 0 0 1 4.64-.15c.67.18 1.27.45 1.81.82s.96.84 1.27 1.41l-1.9.5c-.28-.47-.73-.82-1.36-1.06s-1.28-.36-1.96-.36c-.53 0-1.04.08-1.52.23-.49.15-.88.38-1.19.69s-.46.69-.46 1.16c0 .44.14.79.43 1.06s.67.48 1.15.63 1.01.29 1.58.41l1.61.32c.75.16 1.46.38 2.12.66s1.2.67 1.61 1.18.62 1.19.62 2.04c0 .61-.16 1.17-.49 1.65-.32.49-.76.9-1.3 1.22-.55.33-1.16.58-1.85.75s-1.39.26-2.11.26Z" class="cls-7"/><path d="M233.99 318.9c-1.02 0-1.9-.17-2.64-.52s-1.32-.81-1.72-1.4c-.41-.59-.61-1.25-.61-1.98 0-1.03.35-1.88 1.04-2.55s1.61-1.18 2.74-1.53c-.5-.51-.9-1.01-1.19-1.5s-.44-1-.44-1.52q0-1.305 1.14-2.07c.76-.51 1.72-.77 2.88-.77.6 0 1.2.09 1.79.27q.885.27 1.47.9c.39.42.59.99.59 1.71 0 .84-.29 1.54-.86 2.1-.58.56-1.32 1.01-2.23 1.36l3.01 2.88c.19-.41.35-.86.49-1.33s.22-.98.27-1.51h1.92c-.06.72-.2 1.43-.43 2.13s-.54 1.35-.94 1.95l3.29 3.14h-2.63l-1.81-1.74c-.63.61-1.38 1.1-2.23 1.45-.86.35-1.81.53-2.87.53Zm0-1.48c.78 0 1.5-.14 2.17-.42s1.25-.68 1.75-1.2l-4-3.83c-.88.28-1.59.65-2.11 1.12s-.79 1.07-.79 1.82c0 .51.14.95.42 1.33q.42.57 1.11.87c.69.3.94.3 1.46.3Zm.82-7.07c.72-.24 1.3-.55 1.75-.94q.66-.585.66-1.38c0-.795-.2-.93-.59-1.16s-.86-.34-1.4-.34-1.03.11-1.45.32-.63.55-.63 1c0 .36.12.72.36 1.07s.5.66.77.91.45.43.52.52Z" style="fill:#400080"/><path d="M251.19 318.66v-13.38h4.69c1.21 0 2.27.1 3.19.29s1.64.57 2.17 1.12c.52.55.79 1.37.79 2.43 0 .6-.1 1.16-.31 1.68s-.6.96-1.18 1.32-1.45.61-2.6.76l4.58 5.77h-2.54l-4.49-5.63h-2.21v5.63h-2.08Zm2.08-7.21h2.76c.72 0 1.37-.05 1.96-.14.58-.09 1.05-.3 1.39-.63.35-.33.52-.83.52-1.51s-.17-1.2-.52-1.52-.81-.53-1.39-.63-1.23-.15-1.96-.15h-2.76v4.59Zm11.36 7.21v-13.38h10.01v1.62h-7.94v4.07h5.86v1.62h-5.86v4.45h7.94v1.62zm18.01.24c-1.4 0-2.6-.3-3.6-.89s-1.77-1.41-2.3-2.45-.8-2.24-.8-3.6.28-2.6.85-3.64c.57-1.03 1.37-1.84 2.4-2.41s2.24-.86 3.62-.86c1.24 0 2.35.26 3.35.78s1.74 1.27 2.24 2.24l-1.81.6q-.48-.9-1.47-1.47c-.66-.38-1.46-.57-2.42-.57-.87 0-1.65.2-2.35.6s-1.26 1-1.67 1.79-.62 1.77-.62 2.93.2 2.08.6 2.88.95 1.42 1.67 1.84c.71.43 1.53.64 2.44.64s1.76-.19 2.42-.56 1.15-.87 1.49-1.48l1.81.6q-.795 1.485-2.34 2.25c-1.03.51-2.2.77-3.51.77Zm8.16-.24v-13.38h4.69c1.21 0 2.27.1 3.19.29s1.64.57 2.17 1.12c.52.55.79 1.37.79 2.43 0 .6-.1 1.16-.31 1.68s-.6.96-1.18 1.32-1.45.61-2.6.76l4.58 5.77h-2.54l-4.49-5.63h-2.21v5.63h-2.08Zm2.08-7.21h2.76c.72 0 1.37-.05 1.96-.14.58-.09 1.05-.3 1.39-.63.35-.33.52-.83.52-1.51s-.17-1.2-.52-1.52-.81-.53-1.39-.63-1.23-.15-1.96-.15h-2.76v4.59Zm11.36 7.21v-13.38h10.01v1.62h-7.94v4.07h5.86v1.62h-5.86v4.45h7.94v1.62zm10.85 0 5.55-13.4h2.32l5.53 13.4h-2.21l-1.13-2.92h-6.72l-1.13 2.92zm3.98-4.54h5.44l-2.72-6.95zm13.09 4.54V306.9h-4.91v-1.62h11.89v1.62h-4.91v11.76h-2.08Zm8.44 0v-1.48h2.08v-10.41h-2.08v-1.48h6.23v1.48h-2.08v10.41h2.08v1.48zm14.88.24c-1.42 0-2.64-.3-3.67-.89s-1.83-1.42-2.4-2.46-.85-2.25-.85-3.59.28-2.54.85-3.58a6.2 6.2 0 0 1 2.4-2.44c1.03-.59 2.25-.89 3.67-.89s2.66.3 3.69.89 1.83 1.41 2.4 2.44.85 2.23.85 3.58-.28 2.55-.85 3.59a6.2 6.2 0 0 1-2.4 2.46c-1.03.59-2.26.89-3.69.89m0-1.58c.9 0 1.71-.21 2.44-.62s1.31-1.02 1.74-1.81.64-1.77.64-2.93-.21-2.12-.64-2.91-1.01-1.4-1.74-1.8-1.54-.61-2.44-.61-1.69.2-2.42.61q-1.095.615-1.74 1.8c-.43.79-.64 1.77-.64 2.91s.21 2.14.64 2.93 1.01 1.4 1.74 1.81 1.54.62 2.42.62m9.5 1.34v-13.38h3.07l6.72 11.38v-11.38h2.08v13.38h-3.05l-6.74-11.44v11.44z" class="cls-7"/><path d="m183.43 136.98-3.8 1.33 4.01-.37c.52-.05 1.02-.12 1.54-.17-9.85 5.91-20.21 11-30.98 15.2-3.33 1.3-5.99 2.21-9.39 3.46 19.95-1.82 38.24-7.98 57.06-14.81l24.81-10.49c8.67-4.2 16.58-9.02 24.73-14.82 30.76-21.89 30.11-38.99 30.11-38.99 1.03-5.12-.87-9.76-5.32-12.35-8.68-5.05-21.91-3.49-31.99-.51-16.22 4.79-31.18 12.43-44.67 22.55-4.11 3.08-8.01 6.06-10.83 10.63 12.02-6.07 23.27-11.54 35.96-14.51 5.51-1.29 14.12-2.8 15.76-.46.18.26.24.77.25 1.31-9.26 2.74-17.96 7.13-25.86 13.06-2.29 1.72-4.26 3.43-6.24 5.66 0 0-.85.89-1.23 1.99l-.09.15 1.85-.83c7.05-3.56 13.47-6.65 20.61-8.32 2.32-.54 4.1-.82 5.43-.91-1.56 2.08-3.33 4.28-4.56 5.64-10.72 11.94-22.88 22.39-36.09 31.32l-5.94 3.05-5.14 2.16Zm61.58-22.64c-4.69 3.34-9.25 6.12-14.25 8.54l-14.59 5.55c-10.11 3.74-22.76 7.92-33.28 9.17l5.99-1.94s.37-.17.41-.19c16.82-6.57 31.67-16.86 43.73-30.29 2.43-2.7 6.83-8.58 5.67-10.23-.42-.6-1.27-1.27-2.78-1.2-1.59.02-3.73.34-6.42.97-6.62 1.55-13.88 5.27-20.29 8.48 1.45-1.75 4.5-4.06 6.22-5.35 7.71-5.78 16.18-10.08 25.19-12.79.05-.02.51-.22.57-.23 5.81-1.72 13.11-2.99 18.11-.08 2.57 1.49 3.66 4.17 3.06 7.11 0 0 .38 9.85-17.35 22.47Zm25.56-36.86c-1.9 2.64-4.84 4.38-8.34 3.89-2.5-.35-4.51-1.76-5.55-3.48-1.26-2.09-1.52-4.46-.66-6.76 1.2-3.19 4.16-5.47 7.54-5.9 3.3-.43 6.14 1.14 7.66 3.72 1.61 2.74 1.24 5.9-.66 8.54Zm25.21-25.12c-3.29 4.59-8.41 7.61-14.47 6.75-4.35-.62-7.82-3.05-9.63-6.05-2.19-3.62-2.64-7.74-1.14-11.74 2.08-5.54 7.22-9.49 13.09-10.25 5.73-.74 10.65 1.97 13.29 6.45 2.8 4.75 2.15 10.24-1.14 14.83Z" style="fill:url(#New_Gradient_Swatch_copy_2-2)"/></svg>